<?xml version="1.0" encoding="UTF-8" standalone="no"?>
<!DOCTYPE svg PUBLIC "-//W3C//DTD SVG 1.1//EN"
 "http://www.w3.org/Graphics/SVG/1.1/DTD/svg11.dtd">
<!-- Generated by graphviz version 5.0.0 (20220707.1540)
 -->
<!-- Title: StorageDiagram Pages: 1 -->
<svg width="1342pt" height="348pt"
 viewBox="0.00 0.00 1342.20 348.20" xmlns="http://www.w3.org/2000/svg" xmlns:xlink="http://www.w3.org/1999/xlink">
<g id="graph0" class="graph" transform="scale(1 1) rotate(0) translate(4 344.2)">
<title>StorageDiagram</title>
<polygon fill="black" stroke="transparent" points="-4,4 -4,-344.2 1338.2,-344.2 1338.2,4 -4,4"/>
<!-- 2 -->
<g id="node1" class="node">
<title>2</title>
<polygon fill="dimgrey" stroke="deeppink" points="0,-0.5 0,-339.7 1013.35,-339.7 1013.35,-0.5 0,-0.5"/>
<text text-anchor="middle" x="506.68" y="-323.1" font-family="Courier New" font-size="14.00" fill="#ffffff">Pool &lt;&lt;Contract&gt;&gt;</text>
<text text-anchor="middle" x="506.68" y="-306.3" font-family="Courier New" font-size="14.00" fill="#ffffff">0xfCc00A1e250644d89AF0df661bC6f04891E21585</text>
<polyline fill="none" stroke="deeppink" points="0,-298.1 1013.35,-298.1 "/>
<text text-anchor="middle" x="24.8" y="-281.5" font-family="Courier New" font-size="14.00" fill="#ffffff">slot</text>
<polyline fill="none" stroke="deeppink" points="0,-273.3 49.61,-273.3 "/>
<text text-anchor="middle" x="24.8" y="-256.7" font-family="Courier New" font-size="14.00" fill="#ffffff">0</text>
<polyline fill="none" stroke="deeppink" points="0,-248.5 49.61,-248.5 "/>
<text text-anchor="middle" x="24.8" y="-231.9" font-family="Courier New" font-size="14.00" fill="#ffffff">1</text>
<polyline fill="none" stroke="deeppink" points="0,-223.7 49.61,-223.7 "/>
<text text-anchor="middle" x="24.8" y="-207.1" font-family="Courier New" font-size="14.00" fill="#ffffff">2&#45;51</text>
<polyline fill="none" stroke="deeppink" points="0,-198.9 49.61,-198.9 "/>
<text text-anchor="middle" x="24.8" y="-182.3" font-family="Courier New" font-size="14.00" fill="#ffffff">52</text>
<polyline fill="none" stroke="deeppink" points="0,-174.1 49.61,-174.1 "/>
<text text-anchor="middle" x="24.8" y="-157.5" font-family="Courier New" font-size="14.00" fill="#ffffff">53</text>
<polyline fill="none" stroke="deeppink" points="0,-149.3 49.61,-149.3 "/>
<text text-anchor="middle" x="24.8" y="-132.7" font-family="Courier New" font-size="14.00" fill="#ffffff">54</text>
<polyline fill="none" stroke="deeppink" points="0,-124.5 49.61,-124.5 "/>
<text text-anchor="middle" x="24.8" y="-107.9" font-family="Courier New" font-size="14.00" fill="#ffffff">55</text>
<polyline fill="none" stroke="deeppink" points="0,-99.7 49.61,-99.7 "/>
<text text-anchor="middle" x="24.8" y="-83.1" font-family="Courier New" font-size="14.00" fill="#ffffff">56</text>
<polyline fill="none" stroke="deeppink" points="0,-74.9 49.61,-74.9 "/>
<text text-anchor="middle" x="24.8" y="-58.3" font-family="Courier New" font-size="14.00" fill="#ffffff">57</text>
<polyline fill="none" stroke="deeppink" points="0,-50.1 49.61,-50.1 "/>
<text text-anchor="middle" x="24.8" y="-33.5" font-family="Courier New" font-size="14.00" fill="#ffffff">58</text>
<polyline fill="none" stroke="deeppink" points="0,-25.3 49.61,-25.3 "/>
<text text-anchor="middle" x="24.8" y="-8.7" font-family="Courier New" font-size="14.00" fill="#ffffff">59</text>
<polyline fill="none" stroke="deeppink" points="49.61,-0.5 49.61,-298.1 "/>
<text text-anchor="middle" x="531.48" y="-281.5" font-family="Courier New" font-size="14.00" fill="#ffffff">type: &lt;inherited contract&gt;.variable (bytes)</text>
<polyline fill="none" stroke="deeppink" points="49.61,-273.3 1013.35,-273.3 "/>
<text text-anchor="middle" x="531.15" y="-256.7" font-family="Courier New" font-size="14.00" fill="#ffffff">uint256: VersionedInitializable.lastInitializedRevision (32)</text>
<polyline fill="none" stroke="deeppink" points="49.61,-248.5 1013.35,-248.5 "/>
<text text-anchor="middle" x="229.32" y="-231.9" font-family="Courier New" font-size="14.00" fill="#ffffff">unallocated (31)</text>
<polyline fill="none" stroke="deeppink" points="409.03,-223.7 409.03,-248.5 "/>
<text text-anchor="middle" x="711.06" y="-231.9" font-family="Courier New" font-size="14.00" fill="#ffffff">bool: VersionedInitializable.initializing (1)</text>
<polyline fill="none" stroke="deeppink" points="49.61,-223.7 1013.35,-223.7 "/>
<text text-anchor="middle" x="531.04" y="-207.1" font-family="Courier New" font-size="14.00" fill="#ffffff">uint256[50]: VersionedInitializable.______gap (1600)</text>
<polyline fill="none" stroke="deeppink" points="49.61,-198.9 1013.35,-198.9 "/>
<text text-anchor="middle" x="531.05" y="-182.3" font-family="Courier New" font-size="14.00" fill="#ffffff">mapping(address=&gt;DataTypes.ReserveData): PoolStorage._reserves (32)</text>
<polyline fill="none" stroke="deeppink" points="49.61,-174.1 1013.35,-174.1 "/>
<text text-anchor="middle" x="531.46" y="-157.5" font-family="Courier New" font-size="14.00" fill="#ffffff">mapping(address=&gt;DataTypes.UserConfigurationMap): PoolStorage._usersConfig (32)</text>
<polyline fill="none" stroke="deeppink" points="49.61,-149.3 1013.35,-149.3 "/>
<text text-anchor="middle" x="531.04" y="-132.7" font-family="Courier New" font-size="14.00" fill="#ffffff">mapping(uint256=&gt;address): PoolStorage._reservesList (32)</text>
<polyline fill="none" stroke="deeppink" points="49.61,-124.5 1013.35,-124.5 "/>
<text text-anchor="middle" x="531.46" y="-107.9" font-family="Courier New" font-size="14.00" fill="#ffffff">mapping(uint8=&gt;DataTypes.EModeCategory): PoolStorage._eModeCategories (32)</text>
<polyline fill="none" stroke="deeppink" points="49.61,-99.7 1013.35,-99.7 "/>
<text text-anchor="middle" x="531.35" y="-83.1" font-family="Courier New" font-size="14.00" fill="#ffffff">mapping(address=&gt;uint8): PoolStorage._usersEModeCategory (32)</text>
<polyline fill="none" stroke="deeppink" points="49.61,-74.9 1013.35,-74.9 "/>
<text text-anchor="middle" x="531.44" y="-58.3" font-family="Courier New" font-size="14.00" fill="#ffffff">uint256: PoolStorage._bridgeProtocolFee (32)</text>
<polyline fill="none" stroke="deeppink" points="49.61,-50.1 1013.35,-50.1 "/>
<text text-anchor="middle" x="300.74" y="-33.5" font-family="Courier New" font-size="14.00" fill="#ffffff">uint128: PoolStorage._flashLoanPremiumToProtocol (16)</text>
<polyline fill="none" stroke="deeppink" points="551.88,-25.3 551.88,-50.1 "/>
<text text-anchor="middle" x="782.51" y="-33.5" font-family="Courier New" font-size="14.00" fill="#ffffff">uint128: PoolStorage._flashLoanPremiumTotal (16)</text>
<polyline fill="none" stroke="deeppink" points="49.61,-25.3 1013.35,-25.3 "/>
<text text-anchor="middle" x="124.82" y="-8.7" font-family="Courier New" font-size="14.00" fill="#ffffff">unallocated (22)</text>
<polyline fill="none" stroke="deeppink" points="200.03,-0.5 200.03,-25.3 "/>
<text text-anchor="middle" x="367.65" y="-8.7" font-family="Courier New" font-size="14.00" fill="#ffffff">uint16: PoolStorage._reservesCount (2)</text>
<polyline fill="none" stroke="deeppink" points="535.28,-0.5 535.28,-25.3 "/>
<text text-anchor="middle" x="774.32" y="-8.7" font-family="Courier New" font-size="14.00" fill="#ffffff">uint64: PoolStorage._maxStableRateBorrowSizePercent (8)</text>
</g>
<!-- 1 -->
<g id="node2" class="node">
<title>1</title>
<polygon fill="dimgrey" stroke="deeppink" points="1049.35,-99.5 1049.35,-322.7 1334.2,-322.7 1334.2,-99.5 1049.35,-99.5"/>
<text text-anchor="middle" x="1191.78" y="-306.1" font-family="Courier New" font-size="14.00" fill="#ffffff">uint256[50]: ______gap &lt;&lt;Array&gt;&gt;</text>
<polyline fill="none" stroke="deeppink" points="1049.35,-297.9 1334.2,-297.9 "/>
<text text-anchor="middle" x="1082.66" y="-281.3" font-family="Courier New" font-size="14.00" fill="#ffffff">slot</text>
<polyline fill="none" stroke="deeppink" points="1049.35,-273.1 1115.96,-273.1 "/>
<text text-anchor="middle" x="1082.66" y="-256.5" font-family="Courier New" font-size="14.00" fill="#ffffff">2</text>
<polyline fill="none" stroke="deeppink" points="1049.35,-248.3 1115.96,-248.3 "/>
<text text-anchor="middle" x="1082.66" y="-231.7" font-family="Courier New" font-size="14.00" fill="#ffffff">3</text>
<polyline fill="none" stroke="deeppink" points="1049.35,-223.5 1115.96,-223.5 "/>
<text text-anchor="middle" x="1082.66" y="-206.9" font-family="Courier New" font-size="14.00" fill="#ffffff">4</text>
<polyline fill="none" stroke="deeppink" points="1049.35,-198.7 1115.96,-198.7 "/>
<text text-anchor="middle" x="1082.66" y="-182.1" font-family="Courier New" font-size="14.00" fill="#ffffff">5&#45;48</text>
<polyline fill="none" stroke="deeppink" points="1049.35,-173.9 1115.96,-173.9 "/>
<text text-anchor="middle" x="1082.66" y="-157.3" font-family="Courier New" font-size="14.00" fill="#ffffff">49</text>
<polyline fill="none" stroke="deeppink" points="1049.35,-149.1 1115.96,-149.1 "/>
<text text-anchor="middle" x="1082.66" y="-132.5" font-family="Courier New" font-size="14.00" fill="#ffffff">50</text>
<polyline fill="none" stroke="deeppink" points="1049.35,-124.3 1115.96,-124.3 "/>
<text text-anchor="middle" x="1082.66" y="-107.7" font-family="Courier New" font-size="14.00" fill="#ffffff">51</text>
<polyline fill="none" stroke="deeppink" points="1115.96,-99.5 1115.96,-297.9 "/>
<text text-anchor="middle" x="1224.88" y="-281.3" font-family="Courier New" font-size="14.00" fill="#ffffff">type: variable (bytes)</text>
<polyline fill="none" stroke="deeppink" points="1115.96,-273.1 1333.79,-273.1 "/>
<text text-anchor="middle" x="1224.87" y="-256.5" font-family="Courier New" font-size="14.00" fill="#ffffff">uint256 (32)</text>
<polyline fill="none" stroke="deeppink" points="1115.96,-248.3 1333.79,-248.3 "/>
<text text-anchor="middle" x="1224.87" y="-231.7" font-family="Courier New" font-size="14.00" fill="#ffffff">uint256 (32)</text>
<polyline fill="none" stroke="deeppink" points="1115.96,-223.5 1333.79,-223.5 "/>
<text text-anchor="middle" x="1224.87" y="-206.9" font-family="Courier New" font-size="14.00" fill="#ffffff">uint256 (32)</text>
<polyline fill="none" stroke="deeppink" points="1115.96,-198.7 1333.79,-198.7 "/>
<text text-anchor="middle" x="1224.67" y="-182.1" font-family="Courier New" font-size="14.00" fill="#ffffff">&#45;&#45;&#45;&#45; (1376)</text>
<polyline fill="none" stroke="deeppink" points="1115.96,-173.9 1333.79,-173.9 "/>
<text text-anchor="middle" x="1224.87" y="-157.3" font-family="Courier New" font-size="14.00" fill="#ffffff">uint256 (32)</text>
<polyline fill="none" stroke="deeppink" points="1115.96,-149.1 1333.79,-149.1 "/>
<text text-anchor="middle" x="1224.87" y="-132.5" font-family="Courier New" font-size="14.00" fill="#ffffff">uint256 (32)</text>
<polyline fill="none" stroke="deeppink" points="1115.96,-124.3 1333.79,-124.3 "/>
<text text-anchor="middle" x="1224.87" y="-107.7" font-family="Courier New" font-size="14.00" fill="#ffffff">uint256 (32)</text>
</g>
<!-- 2&#45;&gt;1 -->
<g id="edge1" class="edge">
<title>2:10&#45;&gt;1</title>
<path fill="none" stroke="deeppink" d="M1013.35,-211.1C1021.66,-211.1 1030.18,-211.1 1038.78,-211.1"/>
<polygon fill="deeppink" stroke="deeppink" points="1038.9,-214.6 1048.9,-211.1 1038.9,-207.6 1038.9,-214.6"/>
</g>
</g>
</svg>
