<?xml version="1.0" encoding="UTF-8" standalone="no"?>
<!DOCTYPE svg PUBLIC "-//W3C//DTD SVG 1.1//EN"
 "http://www.w3.org/Graphics/SVG/1.1/DTD/svg11.dtd">
<!-- Generated by graphviz version 5.0.0 (20220707.1540)
 -->
<!-- Title: StorageDiagram Pages: 1 -->
<svg width="3651pt" height="428pt"
 viewBox="0.00 0.00 3650.93 427.80" xmlns="http://www.w3.org/2000/svg" xmlns:xlink="http://www.w3.org/1999/xlink">
<g id="graph0" class="graph" transform="scale(1 1) rotate(0) translate(4 423.8)">
<title>StorageDiagram</title>
<polygon fill="white" stroke="transparent" points="-4,4 -4,-423.8 3646.93,-423.8 3646.93,4 -4,4"/>
<!-- 8 -->
<g id="node1" class="node">
<title>8</title>
<polygon fill="#f2f2f2" stroke="black" points="0,-175.5 0,-390.7 845.33,-390.7 845.33,-175.5 0,-175.5"/>
<text text-anchor="middle" x="422.66" y="-374.1" font-family="Courier New" font-size="14.00">EmissionsController &lt;&lt;Contract&gt;&gt;</text>
<text text-anchor="middle" x="422.66" y="-357.3" font-family="Courier New" font-size="14.00">0xebfd9cD78510c591eDa8735D0F8a87414eF27A83</text>
<polyline fill="none" stroke="black" points="0,-349.1 845.33,-349.1 "/>
<text text-anchor="middle" x="24.8" y="-332.5" font-family="Courier New" font-size="14.00">slot</text>
<polyline fill="none" stroke="black" points="0,-324.3 49.61,-324.3 "/>
<text text-anchor="middle" x="24.8" y="-307.7" font-family="Courier New" font-size="14.00">0</text>
<polyline fill="none" stroke="black" points="0,-299.5 49.61,-299.5 "/>
<text text-anchor="middle" x="24.8" y="-282.9" font-family="Courier New" font-size="14.00">1</text>
<polyline fill="none" stroke="black" points="0,-274.7 49.61,-274.7 "/>
<text text-anchor="middle" x="24.8" y="-258.1" font-family="Courier New" font-size="14.00">2</text>
<polyline fill="none" stroke="black" points="0,-249.9 49.61,-249.9 "/>
<text text-anchor="middle" x="24.8" y="-233.3" font-family="Courier New" font-size="14.00">3</text>
<polyline fill="none" stroke="black" points="0,-225.1 49.61,-225.1 "/>
<text text-anchor="middle" x="24.8" y="-208.5" font-family="Courier New" font-size="14.00">4</text>
<polyline fill="none" stroke="black" points="0,-200.3 49.61,-200.3 "/>
<text text-anchor="middle" x="24.8" y="-183.7" font-family="Courier New" font-size="14.00">5</text>
<polyline fill="none" stroke="black" points="49.61,-175.5 49.61,-349.1 "/>
<text text-anchor="middle" x="447.47" y="-332.5" font-family="Courier New" font-size="14.00">type: &lt;inherited contract&gt;.variable (bytes)</text>
<polyline fill="none" stroke="black" points="49.61,-324.3 845.33,-324.3 "/>
<text text-anchor="middle" x="124.82" y="-307.7" font-family="Courier New" font-size="14.00">unallocated (30)</text>
<polyline fill="none" stroke="black" points="200.03,-299.5 200.03,-324.3 "/>
<text text-anchor="middle" x="363.45" y="-307.7" font-family="Courier New" font-size="14.00">bool: Initializable._initializing (1)</text>
<polyline fill="none" stroke="black" points="526.88,-299.5 526.88,-324.3 "/>
<text text-anchor="middle" x="686.1" y="-307.7" font-family="Courier New" font-size="14.00">bool: Initializable._initialized (1)</text>
<polyline fill="none" stroke="black" points="49.61,-299.5 845.33,-299.5 "/>
<text text-anchor="middle" x="447.12" y="-282.9" font-family="Courier New" font-size="14.00">EpochHistory: epochs (32)</text>
<polyline fill="none" stroke="black" points="49.61,-274.7 845.33,-274.7 "/>
<text text-anchor="middle" x="447.24" y="-258.1" font-family="Courier New" font-size="14.00">mapping(address=&gt;uint32): stakingContractAddTime (32)</text>
<polyline fill="none" stroke="black" points="49.61,-249.9 845.33,-249.9 "/>
<text text-anchor="middle" x="447.33" y="-233.3" font-family="Courier New" font-size="14.00">IVotes[]: stakingContracts (32)</text>
<polyline fill="none" stroke="black" points="49.61,-225.1 845.33,-225.1 "/>
<text text-anchor="middle" x="447.02" y="-208.5" font-family="Courier New" font-size="14.00">DialData[]: dials (32)</text>
<polyline fill="none" stroke="black" points="49.61,-200.3 845.33,-200.3 "/>
<text text-anchor="middle" x="447.04" y="-183.7" font-family="Courier New" font-size="14.00">mapping(address=&gt;VoterPreferences): voterPreferences (32)</text>
</g>
<!-- 1 -->
<g id="node2" class="node">
<title>1</title>
<polygon fill="#f2f2f2" stroke="black" points="914.93,-344.9 914.93,-419.3 1508.22,-419.3 1508.22,-344.9 914.93,-344.9"/>
<text text-anchor="middle" x="1211.58" y="-402.7" font-family="Courier New" font-size="14.00">EpochHistory &lt;&lt;Struct&gt;&gt;</text>
<polyline fill="none" stroke="black" points="914.93,-394.5 1508.22,-394.5 "/>
<text text-anchor="middle" x="939.74" y="-377.9" font-family="Courier New" font-size="14.00">slot</text>
<polyline fill="none" stroke="black" points="914.93,-369.7 964.54,-369.7 "/>
<text text-anchor="middle" x="939.74" y="-353.1" font-family="Courier New" font-size="14.00">1</text>
<polyline fill="none" stroke="black" points="964.54,-344.9 964.54,-394.5 "/>
<text text-anchor="middle" x="1236.38" y="-377.9" font-family="Courier New" font-size="14.00">type: variable (bytes)</text>
<polyline fill="none" stroke="black" points="964.54,-369.7 1508.22,-369.7 "/>
<text text-anchor="middle" x="1039.75" y="-353.1" font-family="Courier New" font-size="14.00">unallocated (24)</text>
<polyline fill="none" stroke="black" points="1114.96,-344.9 1114.96,-369.7 "/>
<text text-anchor="middle" x="1211.17" y="-353.1" font-family="Courier New" font-size="14.00">uint32: lastEpoch (4)</text>
<polyline fill="none" stroke="black" points="1307.39,-344.9 1307.39,-369.7 "/>
<text text-anchor="middle" x="1407.8" y="-353.1" font-family="Courier New" font-size="14.00">uint32: startEpoch (4)</text>
</g>
<!-- 8&#45;&gt;1 -->
<g id="edge1" class="edge">
<title>8:5&#45;&gt;1</title>
<path fill="none" stroke="black" d="M845.33,-287.1C871.99,-287.1 858.38,-321.51 881.33,-335.1 889.17,-339.74 897.3,-343.99 905.65,-347.88"/>
<polygon fill="black" stroke="black" points="904.24,-351.08 914.79,-351.96 907.09,-344.69 904.24,-351.08"/>
</g>
<!-- 2 -->
<g id="node3" class="node">
<title>2</title>
<polygon fill="#f2f2f2" stroke="black" points="926.33,-234.5 926.33,-325.7 1496.82,-325.7 1496.82,-234.5 926.33,-234.5"/>
<text text-anchor="middle" x="1211.58" y="-309.1" font-family="Courier New" font-size="14.00">IVotes[]: stakingContracts &lt;&lt;Array&gt;&gt;</text>
<text text-anchor="middle" x="1211.58" y="-292.3" font-family="Courier New" font-size="14.00">0xc2575a0e9e593c00f959f8c92f12db2869c3395a3b0502d05e2516446f71f85b</text>
<polyline fill="none" stroke="black" points="926.33,-284.1 1496.82,-284.1 "/>
<text text-anchor="middle" x="1020.53" y="-267.5" font-family="Courier New" font-size="14.00">offset</text>
<polyline fill="none" stroke="black" points="926.33,-259.3 1114.74,-259.3 "/>
<text text-anchor="middle" x="1020.53" y="-242.7" font-family="Courier New" font-size="14.00">0</text>
<polyline fill="none" stroke="black" points="1114.74,-234.5 1114.74,-284.1 "/>
<text text-anchor="middle" x="1305.66" y="-267.5" font-family="Courier New" font-size="14.00">type: variable (bytes)</text>
<polyline fill="none" stroke="black" points="1114.74,-259.3 1496.58,-259.3 "/>
<text text-anchor="middle" x="1220.45" y="-242.7" font-family="Courier New" font-size="14.00">unallocated (12)</text>
<polyline fill="none" stroke="black" points="1326.16,-234.5 1326.16,-259.3 "/>
<text text-anchor="middle" x="1411.37" y="-242.7" font-family="Courier New" font-size="14.00">IVotes (20)</text>
</g>
<!-- 8&#45;&gt;2 -->
<g id="edge2" class="edge">
<title>8:8&#45;&gt;2</title>
<path fill="none" stroke="black" d="M845.33,-237.1C868.37,-237.1 892.18,-237.95 916.08,-239.42"/>
<polygon fill="black" stroke="black" points="916.12,-242.93 926.32,-240.09 916.57,-235.95 916.12,-242.93"/>
</g>
<!-- 6 -->
<g id="node7" class="node">
<title>6</title>
<polygon fill="#f2f2f2" stroke="black" points="926.33,-124.5 926.33,-215.7 1496.82,-215.7 1496.82,-124.5 926.33,-124.5"/>
<text text-anchor="middle" x="1211.58" y="-199.1" font-family="Courier New" font-size="14.00">DialData[]: dials &lt;&lt;Array&gt;&gt;</text>
<text text-anchor="middle" x="1211.58" y="-182.3" font-family="Courier New" font-size="14.00">0x8a35acfbc15ff81a39ae7d344fd709f28e8600b4aa8c65c6b64bfe7fe36bd19b</text>
<polyline fill="none" stroke="black" points="926.33,-174.1 1496.82,-174.1 "/>
<text text-anchor="middle" x="1035.03" y="-157.5" font-family="Courier New" font-size="14.00">offset</text>
<polyline fill="none" stroke="black" points="926.33,-149.3 1143.74,-149.3 "/>
<text text-anchor="middle" x="1035.03" y="-132.7" font-family="Courier New" font-size="14.00">0&#45;2</text>
<polyline fill="none" stroke="black" points="1143.74,-124.5 1143.74,-174.1 "/>
<text text-anchor="middle" x="1320.15" y="-157.5" font-family="Courier New" font-size="14.00">type: variable (bytes)</text>
<polyline fill="none" stroke="black" points="1143.74,-149.3 1496.57,-149.3 "/>
<text text-anchor="middle" x="1319.85" y="-132.7" font-family="Courier New" font-size="14.00">DialData (96)</text>
</g>
<!-- 8&#45;&gt;6 -->
<g id="edge3" class="edge">
<title>8:19&#45;&gt;6</title>
<path fill="none" stroke="black" d="M845.33,-213.1C868.37,-213.1 892.18,-212.25 916.08,-210.78"/>
<polygon fill="black" stroke="black" points="916.57,-214.25 926.32,-210.11 916.12,-207.27 916.57,-214.25"/>
</g>
<!-- 7 -->
<g id="node8" class="node">
<title>7</title>
<polygon fill="#f2f2f2" stroke="black" points="881.33,-6.5 881.33,-105.7 1541.82,-105.7 1541.82,-6.5 881.33,-6.5"/>
<text text-anchor="middle" x="1211.58" y="-89.1" font-family="Courier New" font-size="14.00">VoterPreferences &lt;&lt;Struct&gt;&gt;</text>
<polyline fill="none" stroke="black" points="881.33,-80.9 1541.82,-80.9 "/>
<text text-anchor="middle" x="914.53" y="-64.3" font-family="Courier New" font-size="14.00">offset</text>
<polyline fill="none" stroke="black" points="881.33,-56.1 947.74,-56.1 "/>
<text text-anchor="middle" x="914.53" y="-39.5" font-family="Courier New" font-size="14.00">0</text>
<polyline fill="none" stroke="black" points="881.33,-31.3 947.74,-31.3 "/>
<text text-anchor="middle" x="914.53" y="-14.7" font-family="Courier New" font-size="14.00">1</text>
<polyline fill="none" stroke="black" points="947.74,-6.5 947.74,-80.9 "/>
<text text-anchor="middle" x="1244.78" y="-64.3" font-family="Courier New" font-size="14.00">type: variable (bytes)</text>
<polyline fill="none" stroke="black" points="947.74,-56.1 1541.82,-56.1 "/>
<text text-anchor="middle" x="1244.75" y="-39.5" font-family="Courier New" font-size="14.00">uint256: dialWeights (32)</text>
<polyline fill="none" stroke="black" points="947.74,-31.3 1541.82,-31.3 "/>
<text text-anchor="middle" x="1022.95" y="-14.7" font-family="Courier New" font-size="14.00">unallocated (12)</text>
<polyline fill="none" stroke="black" points="1098.16,-6.5 1098.16,-31.3 "/>
<text text-anchor="middle" x="1215.38" y="-14.7" font-family="Courier New" font-size="14.00">uint32: lastSourcePoke (4)</text>
<polyline fill="none" stroke="black" points="1332.59,-6.5 1332.59,-31.3 "/>
<text text-anchor="middle" x="1437.21" y="-14.7" font-family="Courier New" font-size="14.00">uint128: votesCast (16)</text>
</g>
<!-- 8&#45;&gt;7 -->
<g id="edge4" class="edge">
<title>8:23&#45;&gt;7</title>
<path fill="none" stroke="black" d="M845.33,-188.1C881.5,-188.1 852.42,-136.85 881.33,-115.1 882.94,-113.89 884.56,-112.7 886.21,-111.53"/>
<polygon fill="black" stroke="black" points="888.24,-114.38 894.55,-105.87 884.31,-108.59 888.24,-114.38"/>
</g>
<!-- 3 -->
<g id="node4" class="node">
<title>3</title>
<polygon fill="#f2f2f2" stroke="black" points="3072.44,-0.5 3072.44,-91.7 3642.93,-91.7 3642.93,-0.5 3072.44,-0.5"/>
<text text-anchor="middle" x="3357.68" y="-75.1" font-family="Courier New" font-size="14.00">HistoricVotes &lt;&lt;Struct&gt;&gt;</text>
<text text-anchor="middle" x="3357.68" y="-58.3" font-family="Courier New" font-size="14.00">0x60264186ee63f748d340388f07b244d96d007fff5cbc397bbd69f8747c421f79</text>
<polyline fill="none" stroke="black" points="3072.44,-50.1 3642.93,-50.1 "/>
<text text-anchor="middle" x="3110.14" y="-33.5" font-family="Courier New" font-size="14.00">offset</text>
<polyline fill="none" stroke="black" points="3072.44,-25.3 3147.85,-25.3 "/>
<text text-anchor="middle" x="3110.14" y="-8.7" font-family="Courier New" font-size="14.00">0</text>
<polyline fill="none" stroke="black" points="3147.85,-0.5 3147.85,-50.1 "/>
<text text-anchor="middle" x="3395.28" y="-33.5" font-family="Courier New" font-size="14.00">type: variable (bytes)</text>
<polyline fill="none" stroke="black" points="3147.85,-25.3 3642.72,-25.3 "/>
<text text-anchor="middle" x="3224.56" y="-8.7" font-family="Courier New" font-size="14.00">unallocated (12)</text>
<polyline fill="none" stroke="black" points="3301.27,-0.5 3301.27,-25.3 "/>
<text text-anchor="middle" x="3382.18" y="-8.7" font-family="Courier New" font-size="14.00">uint32: epoch (4)</text>
<polyline fill="none" stroke="black" points="3463.09,-0.5 3463.09,-25.3 "/>
<text text-anchor="middle" x="3552.9" y="-8.7" font-family="Courier New" font-size="14.00">uint128: votes (16)</text>
</g>
<!-- 4 -->
<g id="node5" class="node">
<title>4</title>
<polygon fill="#f2f2f2" stroke="black" points="2465.95,-33.5 2465.95,-124.7 3036.44,-124.7 3036.44,-33.5 2465.95,-33.5"/>
<text text-anchor="middle" x="2751.19" y="-108.1" font-family="Courier New" font-size="14.00">HistoricVotes[]: voteHistory &lt;&lt;Array&gt;&gt;</text>
<text text-anchor="middle" x="2751.19" y="-91.3" font-family="Courier New" font-size="14.00">0x60264186ee63f748d340388f07b244d96d007fff5cbc397bbd69f8747c421f79</text>
<polyline fill="none" stroke="black" points="2465.95,-83.1 3036.44,-83.1 "/>
<text text-anchor="middle" x="2574.65" y="-66.5" font-family="Courier New" font-size="14.00">offset</text>
<polyline fill="none" stroke="black" points="2465.95,-58.3 2683.36,-58.3 "/>
<text text-anchor="middle" x="2574.65" y="-41.7" font-family="Courier New" font-size="14.00">0</text>
<polyline fill="none" stroke="black" points="2683.36,-33.5 2683.36,-83.1 "/>
<text text-anchor="middle" x="2859.77" y="-66.5" font-family="Courier New" font-size="14.00">type: variable (bytes)</text>
<polyline fill="none" stroke="black" points="2683.36,-58.3 3036.19,-58.3 "/>
<text text-anchor="middle" x="2859.47" y="-41.7" font-family="Courier New" font-size="14.00">HistoricVotes (32)</text>
</g>
<!-- 4&#45;&gt;3 -->
<g id="edge5" class="edge">
<title>4:16&#45;&gt;3</title>
<path fill="none" stroke="black" d="M3036.19,-46.1C3044.69,-46.1 3053.32,-46.1 3062.02,-46.1"/>
<polygon fill="black" stroke="black" points="3062.28,-49.6 3072.28,-46.1 3062.28,-42.6 3062.28,-49.6"/>
</g>
<!-- 5 -->
<g id="node6" class="node">
<title>5</title>
<polygon fill="#f2f2f2" stroke="black" points="1577.82,-66.7 1577.82,-207.5 2429.95,-207.5 2429.95,-66.7 1577.82,-66.7"/>
<text text-anchor="middle" x="2003.89" y="-190.9" font-family="Courier New" font-size="14.00">DialData &lt;&lt;Struct&gt;&gt;</text>
<text text-anchor="middle" x="2003.89" y="-174.1" font-family="Courier New" font-size="14.00">0x8a35acfbc15ff81a39ae7d344fd709f28e8600b4aa8c65c6b64bfe7fe36bd19b</text>
<polyline fill="none" stroke="black" points="1577.82,-165.9 2429.95,-165.9 "/>
<text text-anchor="middle" x="1611.03" y="-149.3" font-family="Courier New" font-size="14.00">offset</text>
<polyline fill="none" stroke="black" points="1577.82,-141.1 1644.23,-141.1 "/>
<text text-anchor="middle" x="1611.03" y="-124.5" font-family="Courier New" font-size="14.00">0</text>
<polyline fill="none" stroke="black" points="1577.82,-116.3 1644.23,-116.3 "/>
<text text-anchor="middle" x="1611.03" y="-99.7" font-family="Courier New" font-size="14.00">1</text>
<polyline fill="none" stroke="black" points="1577.82,-91.5 1644.23,-91.5 "/>
<text text-anchor="middle" x="1611.03" y="-74.9" font-family="Courier New" font-size="14.00">2</text>
<polyline fill="none" stroke="black" points="1644.23,-66.7 1644.23,-165.9 "/>
<text text-anchor="middle" x="2037.09" y="-149.3" font-family="Courier New" font-size="14.00">type: variable (bytes)</text>
<polyline fill="none" stroke="black" points="1644.23,-141.1 2429.95,-141.1 "/>
<text text-anchor="middle" x="1719.44" y="-124.5" font-family="Courier New" font-size="14.00">unallocated (17)</text>
<polyline fill="none" stroke="black" points="1794.65,-116.3 1794.65,-141.1 "/>
<text text-anchor="middle" x="1886.67" y="-124.5" font-family="Courier New" font-size="14.00">uint96: balance (12)</text>
<polyline fill="none" stroke="black" points="1978.68,-116.3 1978.68,-141.1 "/>
<text text-anchor="middle" x="2045.49" y="-124.5" font-family="Courier New" font-size="14.00">uint8: cap (1)</text>
<polyline fill="none" stroke="black" points="2112.3,-116.3 2112.3,-141.1 "/>
<text text-anchor="middle" x="2187.51" y="-124.5" font-family="Courier New" font-size="14.00">bool: notify (1)</text>
<polyline fill="none" stroke="black" points="2262.72,-116.3 2262.72,-141.1 "/>
<text text-anchor="middle" x="2346.33" y="-124.5" font-family="Courier New" font-size="14.00">bool: disabled (1)</text>
<polyline fill="none" stroke="black" points="1644.23,-116.3 2429.95,-116.3 "/>
<text text-anchor="middle" x="1825.94" y="-99.7" font-family="Courier New" font-size="14.00">unallocated (12)</text>
<polyline fill="none" stroke="black" points="2007.65,-91.5 2007.65,-116.3 "/>
<text text-anchor="middle" x="2218.77" y="-99.7" font-family="Courier New" font-size="14.00">address: recipient (20)</text>
<polyline fill="none" stroke="black" points="1644.23,-91.5 2429.95,-91.5 "/>
<text text-anchor="middle" x="2036.85" y="-74.9" font-family="Courier New" font-size="14.00">HistoricVotes[]: voteHistory (32)</text>
</g>
<!-- 5&#45;&gt;4 -->
<g id="edge6" class="edge">
<title>5:17&#45;&gt;4</title>
<path fill="none" stroke="black" d="M2429.95,-79.1C2438.34,-79.1 2446.85,-79.1 2455.45,-79.1"/>
<polygon fill="black" stroke="black" points="2455.57,-82.6 2465.57,-79.1 2455.57,-75.6 2455.57,-82.6"/>
</g>
<!-- 6&#45;&gt;5 -->
<g id="edge7" class="edge">
<title>6:18&#45;&gt;5</title>
<path fill="none" stroke="black" d="M1496.58,-137.1C1519.75,-137.1 1543.51,-137.1 1567.51,-137.1"/>
<polygon fill="black" stroke="black" points="1567.8,-140.6 1577.8,-137.1 1567.8,-133.6 1567.8,-140.6"/>
</g>
</g>
</svg>
