<?xml version="1.0" encoding="UTF-8" standalone="no"?>
<!DOCTYPE svg PUBLIC "-//W3C//DTD SVG 1.1//EN"
 "http://www.w3.org/Graphics/SVG/1.1/DTD/svg11.dtd">
<!-- Generated by graphviz version 5.0.0 (20220707.1540)
 -->
<!-- Title: StorageDiagram Pages: 1 -->
<svg width="5301pt" height="901pt"
 viewBox="0.00 0.00 5301.19 900.60" xmlns="http://www.w3.org/2000/svg" xmlns:xlink="http://www.w3.org/1999/xlink">
<g id="graph0" class="graph" transform="scale(1 1) rotate(0) translate(4 896.6)">
<title>StorageDiagram</title>
<polygon fill="white" stroke="transparent" points="-4,4 -4,-896.6 5297.19,-896.6 5297.19,4 -4,4"/>
<!-- 10 -->
<g id="node1" class="node">
<title>10</title>
<polygon fill="#f2f2f2" stroke="black" points="0,-511.9 0,-661.5 997.35,-661.5 997.35,-511.9 0,-511.9"/>
<text text-anchor="middle" x="498.68" y="-644.9" font-family="Courier New" font-size="14.00">StructStorage &lt;&lt;Contract&gt;&gt;</text>
<text text-anchor="middle" x="498.68" y="-628.1" font-family="Courier New" font-size="14.00">0xB8F98C34e40E0D201CE2F3440cE92d0B5c5CfFe2</text>
<polyline fill="none" stroke="black" points="0,-619.9 997.35,-619.9 "/>
<text text-anchor="middle" x="24.8" y="-603.3" font-family="Courier New" font-size="14.00">slot</text>
<text text-anchor="middle" x="24.8" y="-586.5" font-family="Courier New" font-size="14.00"> &#160;</text>
<polyline fill="none" stroke="black" points="0,-578.3 49.61,-578.3 "/>
<text text-anchor="middle" x="24.8" y="-561.7" font-family="Courier New" font-size="14.00">0&#45;5 </text>
<polyline fill="none" stroke="black" points="0,-553.5 49.61,-553.5 "/>
<text text-anchor="middle" x="24.8" y="-536.9" font-family="Courier New" font-size="14.00">6</text>
<text text-anchor="middle" x="24.8" y="-520.1" font-family="Courier New" font-size="14.00"> </text>
<polyline fill="none" stroke="black" points="49.61,-511.9 49.61,-619.9 "/>
<text text-anchor="middle" x="334.85" y="-603.3" font-family="Courier New" font-size="14.00">value</text>
<text text-anchor="middle" x="334.85" y="-586.5" font-family="Courier New" font-size="14.00"> &#160;</text>
<polyline fill="none" stroke="black" points="49.61,-578.3 620.1,-578.3 "/>
<text text-anchor="middle" x="334.85" y="-561.7" font-family="Courier New" font-size="14.00"> </text>
<polyline fill="none" stroke="black" points="49.61,-553.5 620.1,-553.5 "/>
<text text-anchor="middle" x="334.85" y="-536.9" font-family="Courier New" font-size="14.00">0x0000000000000000000000000000000000000000000000000000000000000001</text>
<text text-anchor="middle" x="334.85" y="-520.1" font-family="Courier New" font-size="14.00"> </text>
<polyline fill="none" stroke="black" points="620.1,-511.9 620.1,-619.9 "/>
<text text-anchor="middle" x="808.73" y="-603.3" font-family="Courier New" font-size="14.00">type: &lt;inherited contract&gt;.variable (bytes)</text>
<text text-anchor="middle" x="808.73" y="-586.5" font-family="Courier New" font-size="14.00">decoded data</text>
<polyline fill="none" stroke="black" points="620.1,-578.3 997.35,-578.3 "/>
<text text-anchor="middle" x="808.42" y="-561.7" font-family="Courier New" font-size="14.00">ExampleStruct: exampleStruct (192)</text>
<polyline fill="none" stroke="black" points="620.1,-553.5 997.35,-553.5 "/>
<text text-anchor="middle" x="808.32" y="-536.9" font-family="Courier New" font-size="14.00">ExampleStruct[]: dynamicStructs (32)</text>
<text text-anchor="middle" x="808.32" y="-520.1" font-family="Courier New" font-size="14.00"> 1 </text>
</g>
<!-- 4 -->
<g id="node5" class="node">
<title>4</title>
<polygon fill="#f2f2f2" stroke="black" points="1033.35,-536.9 1033.35,-794.5 2532.38,-794.5 2532.38,-536.9 1033.35,-536.9"/>
<text text-anchor="middle" x="1782.87" y="-777.9" font-family="Courier New" font-size="14.00">ExampleStruct &lt;&lt;Struct&gt;&gt;</text>
<polyline fill="none" stroke="black" points="1033.35,-769.7 2532.38,-769.7 "/>
<text text-anchor="middle" x="1058.16" y="-753.1" font-family="Courier New" font-size="14.00">slot</text>
<text text-anchor="middle" x="1058.16" y="-736.3" font-family="Courier New" font-size="14.00"> &#160;</text>
<polyline fill="none" stroke="black" points="1033.35,-728.1 1082.96,-728.1 "/>
<text text-anchor="middle" x="1058.16" y="-711.5" font-family="Courier New" font-size="14.00">0</text>
<text text-anchor="middle" x="1058.16" y="-694.7" font-family="Courier New" font-size="14.00"> &#160;</text>
<polyline fill="none" stroke="black" points="1033.35,-686.5 1082.96,-686.5 "/>
<text text-anchor="middle" x="1058.16" y="-669.9" font-family="Courier New" font-size="14.00">1</text>
<text text-anchor="middle" x="1058.16" y="-653.1" font-family="Courier New" font-size="14.00"> &#160;</text>
<polyline fill="none" stroke="black" points="1033.35,-644.9 1082.96,-644.9 "/>
<text text-anchor="middle" x="1058.16" y="-628.3" font-family="Courier New" font-size="14.00">2</text>
<text text-anchor="middle" x="1058.16" y="-611.5" font-family="Courier New" font-size="14.00"> &#160;</text>
<polyline fill="none" stroke="black" points="1033.35,-603.3 1082.96,-603.3 "/>
<text text-anchor="middle" x="1058.16" y="-586.7" font-family="Courier New" font-size="14.00">3&#45;4 </text>
<polyline fill="none" stroke="black" points="1033.35,-578.5 1082.96,-578.5 "/>
<text text-anchor="middle" x="1058.16" y="-561.9" font-family="Courier New" font-size="14.00">5</text>
<text text-anchor="middle" x="1058.16" y="-545.1" font-family="Courier New" font-size="14.00"> </text>
<polyline fill="none" stroke="black" points="1082.96,-536.9 1082.96,-769.7 "/>
<text text-anchor="middle" x="1368.21" y="-753.1" font-family="Courier New" font-size="14.00">value</text>
<text text-anchor="middle" x="1368.21" y="-736.3" font-family="Courier New" font-size="14.00"> &#160;</text>
<polyline fill="none" stroke="black" points="1082.96,-728.1 1653.45,-728.1 "/>
<text text-anchor="middle" x="1368.21" y="-711.5" font-family="Courier New" font-size="14.00">0x00000000000000000000029FF58F4FFB29FA2266AB25E75E2A8B350331165601</text>
<text text-anchor="middle" x="1368.21" y="-694.7" font-family="Courier New" font-size="14.00"> &#160;</text>
<polyline fill="none" stroke="black" points="1082.96,-686.5 1653.45,-686.5 "/>
<text text-anchor="middle" x="1368.21" y="-669.9" font-family="Courier New" font-size="14.00">0x0000000000000000000000000000000000000000000000000000000000000003</text>
<text text-anchor="middle" x="1368.21" y="-653.1" font-family="Courier New" font-size="14.00"> &#160;</text>
<polyline fill="none" stroke="black" points="1082.96,-644.9 1653.45,-644.9 "/>
<text text-anchor="middle" x="1368.21" y="-628.3" font-family="Courier New" font-size="14.00">0x0000000000000000000000000000000000000000000000000000000000000003</text>
<text text-anchor="middle" x="1368.21" y="-611.5" font-family="Courier New" font-size="14.00"> &#160;</text>
<polyline fill="none" stroke="black" points="1082.96,-603.3 1653.45,-603.3 "/>
<text text-anchor="middle" x="1368.21" y="-586.7" font-family="Courier New" font-size="14.00"> </text>
<polyline fill="none" stroke="black" points="1082.96,-578.5 1653.45,-578.5 "/>
<text text-anchor="middle" x="1368.21" y="-561.9" font-family="Courier New" font-size="14.00">0x0000000000000000000000000000000000000000000000000000000000000099</text>
<text text-anchor="middle" x="1368.21" y="-545.1" font-family="Courier New" font-size="14.00"> </text>
<polyline fill="none" stroke="black" points="1653.45,-536.9 1653.45,-769.7 "/>
<text text-anchor="middle" x="2092.92" y="-753.1" font-family="Courier New" font-size="14.00">type: variable (bytes)</text>
<text text-anchor="middle" x="2092.92" y="-736.3" font-family="Courier New" font-size="14.00">decoded data</text>
<polyline fill="none" stroke="black" points="1653.45,-728.1 2532.38,-728.1 "/>
<text text-anchor="middle" x="1728.66" y="-703.1" font-family="Courier New" font-size="14.00">unallocated (10)</text>
<polyline fill="none" stroke="black" points="1803.87,-686.5 1803.87,-728.1 "/>
<text text-anchor="middle" x="1904.29" y="-711.5" font-family="Courier New" font-size="14.00">Severity: severity (1)</text>
<text text-anchor="middle" x="1904.29" y="-694.7" font-family="Courier New" font-size="14.00"> High &#160;</text>
<polyline fill="none" stroke="black" points="2004.7,-686.5 2004.7,-728.1 "/>
<text text-anchor="middle" x="2201.73" y="-711.5" font-family="Courier New" font-size="14.00">address: token (20)</text>
<text text-anchor="middle" x="2201.73" y="-694.7" font-family="Courier New" font-size="14.00"> 0x9ff58f4fFB29fA2266Ab25e75e2A8b3503311656 &#160;</text>
<polyline fill="none" stroke="black" points="2398.76,-686.5 2398.76,-728.1 "/>
<text text-anchor="middle" x="2465.57" y="-711.5" font-family="Courier New" font-size="14.00">bool: flag (1)</text>
<text text-anchor="middle" x="2465.57" y="-694.7" font-family="Courier New" font-size="14.00"> true </text>
<polyline fill="none" stroke="black" points="1653.45,-686.5 2532.38,-686.5 "/>
<text text-anchor="middle" x="2092.47" y="-669.9" font-family="Courier New" font-size="14.00">address[]: dynamicAddressArray (32)</text>
<text text-anchor="middle" x="2092.47" y="-653.1" font-family="Courier New" font-size="14.00"> 3 </text>
<polyline fill="none" stroke="black" points="1653.45,-644.9 2532.38,-644.9 "/>
<text text-anchor="middle" x="2092.77" y="-628.3" font-family="Courier New" font-size="14.00">int64[]: dynamicIntArray (32)</text>
<text text-anchor="middle" x="2092.77" y="-611.5" font-family="Courier New" font-size="14.00"> 3 </text>
<polyline fill="none" stroke="black" points="1653.45,-603.3 2532.38,-603.3 "/>
<text text-anchor="middle" x="2092.67" y="-586.7" font-family="Courier New" font-size="14.00">uint256[2]: staticIntArray (64)</text>
<polyline fill="none" stroke="black" points="1653.45,-578.5 2532.38,-578.5 "/>
<text text-anchor="middle" x="2092.57" y="-561.9" font-family="Courier New" font-size="14.00">string: someString (32)</text>
<text text-anchor="middle" x="2092.57" y="-545.1" font-family="Courier New" font-size="14.00"> 76 </text>
</g>
<!-- 10&#45;&gt;4 -->
<g id="edge1" class="edge">
<title>10:12&#45;&gt;4</title>
<path fill="none" stroke="black" d="M997.35,-565.7C1005.87,-565.7 1014.43,-565.76 1023.03,-565.87"/>
<polygon fill="black" stroke="black" points="1023.09,-569.37 1033.14,-566.03 1023.2,-562.38 1023.09,-569.37"/>
</g>
<!-- 9 -->
<g id="node10" class="node">
<title>9</title>
<polygon fill="#f2f2f2" stroke="black" points="1497.62,-378.7 1497.62,-486.7 2068.11,-486.7 2068.11,-378.7 1497.62,-378.7"/>
<text text-anchor="middle" x="1782.87" y="-470.1" font-family="Courier New" font-size="14.00">ExampleStruct[]: dynamicStructs &lt;&lt;Array&gt;&gt;</text>
<text text-anchor="middle" x="1782.87" y="-453.3" font-family="Courier New" font-size="14.00">0xf652222313e28459528d920b65115c16c04f3efc82aaedc97be59f3f377c0d3f</text>
<polyline fill="none" stroke="black" points="1497.62,-445.1 2068.11,-445.1 "/>
<text text-anchor="middle" x="1571.33" y="-428.5" font-family="Courier New" font-size="14.00">offset</text>
<text text-anchor="middle" x="1571.33" y="-411.7" font-family="Courier New" font-size="14.00"> &#160;</text>
<polyline fill="none" stroke="black" points="1497.62,-403.5 1645.03,-403.5 "/>
<text text-anchor="middle" x="1571.33" y="-386.9" font-family="Courier New" font-size="14.00">0&#45;5</text>
<polyline fill="none" stroke="black" points="1645.03,-378.7 1645.03,-445.1 "/>
<text text-anchor="middle" x="1715.04" y="-428.5" font-family="Courier New" font-size="14.00">value</text>
<text text-anchor="middle" x="1715.04" y="-411.7" font-family="Courier New" font-size="14.00"> &#160;</text>
<polyline fill="none" stroke="black" points="1645.03,-403.5 1785.04,-403.5 "/>
<text text-anchor="middle" x="1715.04" y="-386.9" font-family="Courier New" font-size="14.00"> </text>
<polyline fill="none" stroke="black" points="1785.04,-378.7 1785.04,-445.1 "/>
<text text-anchor="middle" x="1926.45" y="-428.5" font-family="Courier New" font-size="14.00">type: variable (bytes)</text>
<text text-anchor="middle" x="1926.45" y="-411.7" font-family="Courier New" font-size="14.00">decoded data</text>
<polyline fill="none" stroke="black" points="1785.04,-403.5 2067.87,-403.5 "/>
<text text-anchor="middle" x="1926.35" y="-386.9" font-family="Courier New" font-size="14.00">ExampleStruct (192)</text>
</g>
<!-- 10&#45;&gt;9 -->
<g id="edge2" class="edge">
<title>10:25&#45;&gt;9</title>
<path fill="none" stroke="black" d="M997.35,-532.7C1013.51,-532.7 1017.34,-529.83 1033.35,-527.7 1182.84,-507.83 1349.24,-486.62 1487.12,-469.3"/>
<polygon fill="black" stroke="black" points="1487.93,-472.72 1497.42,-468 1487.06,-465.78 1487.93,-472.72"/>
</g>
<!-- 1 -->
<g id="node2" class="node">
<title>1</title>
<polygon fill="#f2f2f2" stroke="black" points="2739.81,-767.3 2739.81,-892.1 3912.79,-892.1 3912.79,-767.3 2739.81,-767.3"/>
<text text-anchor="middle" x="3326.3" y="-875.5" font-family="Courier New" font-size="14.00">address[]: dynamicAddressArray &lt;&lt;Array&gt;&gt;</text>
<text text-anchor="middle" x="3326.3" y="-858.7" font-family="Courier New" font-size="14.00">0xb10e2d527612073b26eecdfd717e6a320cf44b4afac2b0732d9fcbe2b7fa0cf6</text>
<polyline fill="none" stroke="black" points="2739.81,-850.5 3912.79,-850.5 "/>
<text text-anchor="middle" x="2773.01" y="-833.9" font-family="Courier New" font-size="14.00">offset</text>
<text text-anchor="middle" x="2773.01" y="-817.1" font-family="Courier New" font-size="14.00"> &#160;</text>
<polyline fill="none" stroke="black" points="2739.81,-808.9 2806.22,-808.9 "/>
<text text-anchor="middle" x="2773.01" y="-792.3" font-family="Courier New" font-size="14.00">0</text>
<text text-anchor="middle" x="2773.01" y="-775.5" font-family="Courier New" font-size="14.00"> </text>
<polyline fill="none" stroke="black" points="2806.22,-767.3 2806.22,-850.5 "/>
<text text-anchor="middle" x="3091.46" y="-833.9" font-family="Courier New" font-size="14.00">value</text>
<text text-anchor="middle" x="3091.46" y="-817.1" font-family="Courier New" font-size="14.00"> &#160;</text>
<polyline fill="none" stroke="black" points="2806.22,-808.9 3376.71,-808.9 "/>
<text text-anchor="middle" x="3091.46" y="-792.3" font-family="Courier New" font-size="14.00">0x000000000000000000000000EB4C2781E4EBA804CE9A9803C67D0893436BB27D</text>
<text text-anchor="middle" x="3091.46" y="-775.5" font-family="Courier New" font-size="14.00"> </text>
<polyline fill="none" stroke="black" points="3376.71,-767.3 3376.71,-850.5 "/>
<text text-anchor="middle" x="3644.75" y="-833.9" font-family="Courier New" font-size="14.00">type: variable (bytes)</text>
<text text-anchor="middle" x="3644.75" y="-817.1" font-family="Courier New" font-size="14.00">decoded data</text>
<polyline fill="none" stroke="black" points="3376.71,-808.9 3912.79,-808.9 "/>
<text text-anchor="middle" x="3451.92" y="-783.9" font-family="Courier New" font-size="14.00">unallocated (12)</text>
<polyline fill="none" stroke="black" points="3527.13,-767.3 3527.13,-808.9 "/>
<text text-anchor="middle" x="3719.96" y="-792.3" font-family="Courier New" font-size="14.00">address (20)</text>
<text text-anchor="middle" x="3719.96" y="-775.5" font-family="Courier New" font-size="14.00"> 0xEB4C2781e4ebA804CE9a9803C67d0893436bB27D </text>
</g>
<!-- 2 -->
<g id="node3" class="node">
<title>2</title>
<polygon fill="#f2f2f2" stroke="black" points="2886.83,-623.3 2886.83,-748.1 3765.76,-748.1 3765.76,-623.3 2886.83,-623.3"/>
<text text-anchor="middle" x="3326.3" y="-731.5" font-family="Courier New" font-size="14.00">int64[]: dynamicIntArray &lt;&lt;Array&gt;&gt;</text>
<text text-anchor="middle" x="3326.3" y="-714.7" font-family="Courier New" font-size="14.00">0x405787fa12a823e0f2b7631cc41b3ba8828b3321ca811111fa75cd3aa3bb5ace</text>
<polyline fill="none" stroke="black" points="2886.83,-706.5 3765.76,-706.5 "/>
<text text-anchor="middle" x="2920.04" y="-689.9" font-family="Courier New" font-size="14.00">offset</text>
<text text-anchor="middle" x="2920.04" y="-673.1" font-family="Courier New" font-size="14.00"> &#160;</text>
<polyline fill="none" stroke="black" points="2886.83,-664.9 2953.24,-664.9 "/>
<text text-anchor="middle" x="2920.04" y="-648.3" font-family="Courier New" font-size="14.00">0</text>
<text text-anchor="middle" x="2920.04" y="-631.5" font-family="Courier New" font-size="14.00"> </text>
<polyline fill="none" stroke="black" points="2953.24,-623.3 2953.24,-706.5 "/>
<text text-anchor="middle" x="3238.49" y="-689.9" font-family="Courier New" font-size="14.00">value</text>
<text text-anchor="middle" x="3238.49" y="-673.1" font-family="Courier New" font-size="14.00"> &#160;</text>
<polyline fill="none" stroke="black" points="2953.24,-664.9 3523.73,-664.9 "/>
<text text-anchor="middle" x="3238.49" y="-648.3" font-family="Courier New" font-size="14.00">0x000000000000000000000000000003FFFFFFFFFFFFFFFFFF0000000000000001</text>
<text text-anchor="middle" x="3238.49" y="-631.5" font-family="Courier New" font-size="14.00"> </text>
<polyline fill="none" stroke="black" points="3523.73,-623.3 3523.73,-706.5 "/>
<text text-anchor="middle" x="3644.75" y="-689.9" font-family="Courier New" font-size="14.00">type: variable (bytes)</text>
<text text-anchor="middle" x="3644.75" y="-673.1" font-family="Courier New" font-size="14.00">decoded data</text>
<polyline fill="none" stroke="black" points="3523.73,-664.9 3765.76,-664.9 "/>
<text text-anchor="middle" x="3598.94" y="-639.9" font-family="Courier New" font-size="14.00">unallocated (24)</text>
<polyline fill="none" stroke="black" points="3674.15,-623.3 3674.15,-664.9 "/>
<text text-anchor="middle" x="3719.96" y="-648.3" font-family="Courier New" font-size="14.00">int64 (8)</text>
<text text-anchor="middle" x="3719.96" y="-631.5" font-family="Courier New" font-size="14.00"> 1 </text>
</g>
<!-- 3 -->
<g id="node4" class="node">
<title>3</title>
<polygon fill="#f2f2f2" stroke="black" points="2915.84,-454.9 2915.84,-604.5 3736.76,-604.5 3736.76,-454.9 2915.84,-454.9"/>
<text text-anchor="middle" x="3326.3" y="-587.9" font-family="Courier New" font-size="14.00">uint256[2]: staticIntArray &lt;&lt;Array&gt;&gt;</text>
<polyline fill="none" stroke="black" points="2915.84,-579.7 3736.76,-579.7 "/>
<text text-anchor="middle" x="2940.64" y="-563.1" font-family="Courier New" font-size="14.00">slot</text>
<text text-anchor="middle" x="2940.64" y="-546.3" font-family="Courier New" font-size="14.00"> &#160;</text>
<polyline fill="none" stroke="black" points="2915.84,-538.1 2965.44,-538.1 "/>
<text text-anchor="middle" x="2940.64" y="-521.5" font-family="Courier New" font-size="14.00">3</text>
<text text-anchor="middle" x="2940.64" y="-504.7" font-family="Courier New" font-size="14.00"> &#160;</text>
<polyline fill="none" stroke="black" points="2915.84,-496.5 2965.44,-496.5 "/>
<text text-anchor="middle" x="2940.64" y="-479.9" font-family="Courier New" font-size="14.00">4</text>
<text text-anchor="middle" x="2940.64" y="-463.1" font-family="Courier New" font-size="14.00"> </text>
<polyline fill="none" stroke="black" points="2965.44,-454.9 2965.44,-579.7 "/>
<text text-anchor="middle" x="3250.69" y="-563.1" font-family="Courier New" font-size="14.00">value</text>
<text text-anchor="middle" x="3250.69" y="-546.3" font-family="Courier New" font-size="14.00"> &#160;</text>
<polyline fill="none" stroke="black" points="2965.44,-538.1 3535.93,-538.1 "/>
<text text-anchor="middle" x="3250.69" y="-521.5" font-family="Courier New" font-size="14.00">0x000000000000000000000000000000000000000000000000000000000000000B</text>
<text text-anchor="middle" x="3250.69" y="-504.7" font-family="Courier New" font-size="14.00"> &#160;</text>
<polyline fill="none" stroke="black" points="2965.44,-496.5 3535.93,-496.5 "/>
<text text-anchor="middle" x="3250.69" y="-479.9" font-family="Courier New" font-size="14.00">0x0000000000000000000000000000000000000000000000000000000000000016</text>
<text text-anchor="middle" x="3250.69" y="-463.1" font-family="Courier New" font-size="14.00"> </text>
<polyline fill="none" stroke="black" points="3535.93,-454.9 3535.93,-579.7 "/>
<text text-anchor="middle" x="3636.35" y="-563.1" font-family="Courier New" font-size="14.00">type: variable (bytes)</text>
<text text-anchor="middle" x="3636.35" y="-546.3" font-family="Courier New" font-size="14.00">decoded data</text>
<polyline fill="none" stroke="black" points="3535.93,-538.1 3736.76,-538.1 "/>
<text text-anchor="middle" x="3636.34" y="-521.5" font-family="Courier New" font-size="14.00">uint256 (32)</text>
<text text-anchor="middle" x="3636.34" y="-504.7" font-family="Courier New" font-size="14.00"> 11 </text>
<polyline fill="none" stroke="black" points="3535.93,-496.5 3736.76,-496.5 "/>
<text text-anchor="middle" x="3636.34" y="-479.9" font-family="Courier New" font-size="14.00">uint256 (32)</text>
<text text-anchor="middle" x="3636.34" y="-463.1" font-family="Courier New" font-size="14.00"> 22 </text>
</g>
<!-- 4&#45;&gt;1 -->
<g id="edge3" class="edge">
<title>4:5&#45;&gt;1</title>
<path fill="none" stroke="black" d="M2532.38,-665.7C2576.29,-665.7 2533.33,-731.26 2568.38,-757.7 2616.55,-794.04 2671.64,-819.69 2729.65,-837.32"/>
<polygon fill="black" stroke="black" points="2728.78,-840.72 2739.37,-840.19 2730.77,-834 2728.78,-840.72"/>
</g>
<!-- 4&#45;&gt;2 -->
<g id="edge4" class="edge">
<title>4:7&#45;&gt;2</title>
<path fill="none" stroke="black" d="M2532.38,-623.7C2644.05,-623.7 2764.29,-629.89 2876.55,-638.35"/>
<polygon fill="black" stroke="black" points="2876.46,-641.86 2886.69,-639.13 2876.99,-634.88 2876.46,-641.86"/>
</g>
<!-- 4&#45;&gt;3 -->
<g id="edge5" class="edge">
<title>4:10&#45;&gt;3</title>
<path fill="none" stroke="black" d="M2532.38,-590.7C2653.75,-590.7 2785.25,-583.51 2905.63,-574.06"/>
<polygon fill="black" stroke="black" points="2906.06,-577.54 2915.75,-573.26 2905.51,-570.56 2906.06,-577.54"/>
</g>
<!-- 5 -->
<g id="node6" class="node">
<title>5</title>
<polygon fill="#f2f2f2" stroke="black" points="4120.21,-330.3 4120.21,-455.1 5293.19,-455.1 5293.19,-330.3 4120.21,-330.3"/>
<text text-anchor="middle" x="4706.7" y="-438.5" font-family="Courier New" font-size="14.00">address[]: dynamicAddressArray &lt;&lt;Array&gt;&gt;</text>
<text text-anchor="middle" x="4706.7" y="-421.7" font-family="Courier New" font-size="14.00">0x768c3a22b1e4688c94525eb9bc2cf1ce7601fc9e871dc6e10fc44f0f06340ce1</text>
<polyline fill="none" stroke="black" points="4120.21,-413.5 5293.19,-413.5 "/>
<text text-anchor="middle" x="4153.42" y="-396.9" font-family="Courier New" font-size="14.00">offset</text>
<text text-anchor="middle" x="4153.42" y="-380.1" font-family="Courier New" font-size="14.00"> &#160;</text>
<polyline fill="none" stroke="black" points="4120.21,-371.9 4186.62,-371.9 "/>
<text text-anchor="middle" x="4153.42" y="-355.3" font-family="Courier New" font-size="14.00">0</text>
<text text-anchor="middle" x="4153.42" y="-338.5" font-family="Courier New" font-size="14.00"> </text>
<polyline fill="none" stroke="black" points="4186.62,-330.3 4186.62,-413.5 "/>
<text text-anchor="middle" x="4471.87" y="-396.9" font-family="Courier New" font-size="14.00">value</text>
<text text-anchor="middle" x="4471.87" y="-380.1" font-family="Courier New" font-size="14.00"> &#160;</text>
<polyline fill="none" stroke="black" points="4186.62,-371.9 4757.11,-371.9 "/>
<text text-anchor="middle" x="4471.87" y="-355.3" font-family="Courier New" font-size="14.00">0x0000000000000000000000002A0B4BDB2492EC4D8EA0015A6784ACC98216C5D2</text>
<text text-anchor="middle" x="4471.87" y="-338.5" font-family="Courier New" font-size="14.00"> </text>
<polyline fill="none" stroke="black" points="4757.11,-330.3 4757.11,-413.5 "/>
<text text-anchor="middle" x="5025.15" y="-396.9" font-family="Courier New" font-size="14.00">type: variable (bytes)</text>
<text text-anchor="middle" x="5025.15" y="-380.1" font-family="Courier New" font-size="14.00">decoded data</text>
<polyline fill="none" stroke="black" points="4757.11,-371.9 5293.19,-371.9 "/>
<text text-anchor="middle" x="4832.32" y="-346.9" font-family="Courier New" font-size="14.00">unallocated (12)</text>
<polyline fill="none" stroke="black" points="4907.53,-330.3 4907.53,-371.9 "/>
<text text-anchor="middle" x="5100.36" y="-355.3" font-family="Courier New" font-size="14.00">address (20)</text>
<text text-anchor="middle" x="5100.36" y="-338.5" font-family="Courier New" font-size="14.00"> 0x2A0b4Bdb2492eC4D8eA0015A6784ACC98216c5D2 </text>
</g>
<!-- 6 -->
<g id="node7" class="node">
<title>6</title>
<polygon fill="#f2f2f2" stroke="black" points="4267.24,-186.3 4267.24,-311.1 5146.17,-311.1 5146.17,-186.3 4267.24,-186.3"/>
<text text-anchor="middle" x="4706.7" y="-294.5" font-family="Courier New" font-size="14.00">int64[]: dynamicIntArray &lt;&lt;Array&gt;&gt;</text>
<text text-anchor="middle" x="4706.7" y="-277.7" font-family="Courier New" font-size="14.00">0xaf786ca8f985b8adb0de73df0052ad2ed91db8313035df9caa6938d80f1945c8</text>
<polyline fill="none" stroke="black" points="4267.24,-269.5 5146.17,-269.5 "/>
<text text-anchor="middle" x="4300.44" y="-252.9" font-family="Courier New" font-size="14.00">offset</text>
<text text-anchor="middle" x="4300.44" y="-236.1" font-family="Courier New" font-size="14.00"> &#160;</text>
<polyline fill="none" stroke="black" points="4267.24,-227.9 4333.65,-227.9 "/>
<text text-anchor="middle" x="4300.44" y="-211.3" font-family="Courier New" font-size="14.00">0</text>
<text text-anchor="middle" x="4300.44" y="-194.5" font-family="Courier New" font-size="14.00"> </text>
<polyline fill="none" stroke="black" points="4333.65,-186.3 4333.65,-269.5 "/>
<text text-anchor="middle" x="4618.89" y="-252.9" font-family="Courier New" font-size="14.00">value</text>
<text text-anchor="middle" x="4618.89" y="-236.1" font-family="Courier New" font-size="14.00"> &#160;</text>
<polyline fill="none" stroke="black" points="4333.65,-227.9 4904.14,-227.9 "/>
<text text-anchor="middle" x="4618.89" y="-211.3" font-family="Courier New" font-size="14.00">0x0000000000000000000000000000000000000000000008AE0000000000000457</text>
<text text-anchor="middle" x="4618.89" y="-194.5" font-family="Courier New" font-size="14.00"> </text>
<polyline fill="none" stroke="black" points="4904.14,-186.3 4904.14,-269.5 "/>
<text text-anchor="middle" x="5025.15" y="-252.9" font-family="Courier New" font-size="14.00">type: variable (bytes)</text>
<text text-anchor="middle" x="5025.15" y="-236.1" font-family="Courier New" font-size="14.00">decoded data</text>
<polyline fill="none" stroke="black" points="4904.14,-227.9 5146.17,-227.9 "/>
<text text-anchor="middle" x="4979.35" y="-202.9" font-family="Courier New" font-size="14.00">unallocated (24)</text>
<polyline fill="none" stroke="black" points="5054.56,-186.3 5054.56,-227.9 "/>
<text text-anchor="middle" x="5100.36" y="-211.3" font-family="Courier New" font-size="14.00">int64 (8)</text>
<text text-anchor="middle" x="5100.36" y="-194.5" font-family="Courier New" font-size="14.00"> 1,111 </text>
</g>
<!-- 7 -->
<g id="node8" class="node">
<title>7</title>
<polygon fill="#f2f2f2" stroke="black" points="4287.84,-0.5 4287.84,-166.9 5125.57,-166.9 5125.57,-0.5 4287.84,-0.5"/>
<text text-anchor="middle" x="4706.7" y="-150.3" font-family="Courier New" font-size="14.00">uint256[2]: staticIntArray &lt;&lt;Array&gt;&gt;</text>
<text text-anchor="middle" x="4706.7" y="-133.5" font-family="Courier New" font-size="14.00">0xf652222313e28459528d920b65115c16c04f3efc82aaedc97be59f3f377c0d3f</text>
<polyline fill="none" stroke="black" points="4287.84,-125.3 5125.57,-125.3 "/>
<text text-anchor="middle" x="4321.04" y="-108.7" font-family="Courier New" font-size="14.00">offset</text>
<text text-anchor="middle" x="4321.04" y="-91.9" font-family="Courier New" font-size="14.00"> &#160;</text>
<polyline fill="none" stroke="black" points="4287.84,-83.7 4354.25,-83.7 "/>
<text text-anchor="middle" x="4321.04" y="-67.1" font-family="Courier New" font-size="14.00">3</text>
<text text-anchor="middle" x="4321.04" y="-50.3" font-family="Courier New" font-size="14.00"> &#160;</text>
<polyline fill="none" stroke="black" points="4287.84,-42.1 4354.25,-42.1 "/>
<text text-anchor="middle" x="4321.04" y="-25.5" font-family="Courier New" font-size="14.00">4</text>
<text text-anchor="middle" x="4321.04" y="-8.7" font-family="Courier New" font-size="14.00"> </text>
<polyline fill="none" stroke="black" points="4354.25,-0.5 4354.25,-125.3 "/>
<text text-anchor="middle" x="4639.49" y="-108.7" font-family="Courier New" font-size="14.00">value</text>
<text text-anchor="middle" x="4639.49" y="-91.9" font-family="Courier New" font-size="14.00"> &#160;</text>
<polyline fill="none" stroke="black" points="4354.25,-83.7 4924.74,-83.7 "/>
<text text-anchor="middle" x="4639.49" y="-67.1" font-family="Courier New" font-size="14.00">0x0000000000000000000000000000000000000000000000000000000000000021</text>
<text text-anchor="middle" x="4639.49" y="-50.3" font-family="Courier New" font-size="14.00"> &#160;</text>
<polyline fill="none" stroke="black" points="4354.25,-42.1 4924.74,-42.1 "/>
<text text-anchor="middle" x="4639.49" y="-25.5" font-family="Courier New" font-size="14.00">0x000000000000000000000000000000000000000000000000000000000000002C</text>
<text text-anchor="middle" x="4639.49" y="-8.7" font-family="Courier New" font-size="14.00"> </text>
<polyline fill="none" stroke="black" points="4924.74,-0.5 4924.74,-125.3 "/>
<text text-anchor="middle" x="5025.15" y="-108.7" font-family="Courier New" font-size="14.00">type: variable (bytes)</text>
<text text-anchor="middle" x="5025.15" y="-91.9" font-family="Courier New" font-size="14.00">decoded data</text>
<polyline fill="none" stroke="black" points="4924.74,-83.7 5125.57,-83.7 "/>
<text text-anchor="middle" x="5025.15" y="-67.1" font-family="Courier New" font-size="14.00">uint256 (32)</text>
<text text-anchor="middle" x="5025.15" y="-50.3" font-family="Courier New" font-size="14.00"> 33 </text>
<polyline fill="none" stroke="black" points="4924.74,-42.1 5125.57,-42.1 "/>
<text text-anchor="middle" x="5025.15" y="-25.5" font-family="Courier New" font-size="14.00">uint256 (32)</text>
<text text-anchor="middle" x="5025.15" y="-8.7" font-family="Courier New" font-size="14.00"> 44 </text>
</g>
<!-- 8 -->
<g id="node9" class="node">
<title>8</title>
<polygon fill="#f2f2f2" stroke="black" points="2568.38,-161.5 2568.38,-435.9 4084.21,-435.9 4084.21,-161.5 2568.38,-161.5"/>
<text text-anchor="middle" x="3326.3" y="-419.3" font-family="Courier New" font-size="14.00">ExampleStruct &lt;&lt;Struct&gt;&gt;</text>
<text text-anchor="middle" x="3326.3" y="-402.5" font-family="Courier New" font-size="14.00">0xf652222313e28459528d920b65115c16c04f3efc82aaedc97be59f3f377c0d3f</text>
<polyline fill="none" stroke="black" points="2568.38,-394.3 4084.21,-394.3 "/>
<text text-anchor="middle" x="2601.59" y="-377.7" font-family="Courier New" font-size="14.00">offset</text>
<text text-anchor="middle" x="2601.59" y="-360.9" font-family="Courier New" font-size="14.00"> &#160;</text>
<polyline fill="none" stroke="black" points="2568.38,-352.7 2634.79,-352.7 "/>
<text text-anchor="middle" x="2601.59" y="-336.1" font-family="Courier New" font-size="14.00">0</text>
<text text-anchor="middle" x="2601.59" y="-319.3" font-family="Courier New" font-size="14.00"> &#160;</text>
<polyline fill="none" stroke="black" points="2568.38,-311.1 2634.79,-311.1 "/>
<text text-anchor="middle" x="2601.59" y="-294.5" font-family="Courier New" font-size="14.00">1</text>
<text text-anchor="middle" x="2601.59" y="-277.7" font-family="Courier New" font-size="14.00"> &#160;</text>
<polyline fill="none" stroke="black" points="2568.38,-269.5 2634.79,-269.5 "/>
<text text-anchor="middle" x="2601.59" y="-252.9" font-family="Courier New" font-size="14.00">2</text>
<text text-anchor="middle" x="2601.59" y="-236.1" font-family="Courier New" font-size="14.00"> &#160;</text>
<polyline fill="none" stroke="black" points="2568.38,-227.9 2634.79,-227.9 "/>
<text text-anchor="middle" x="2601.59" y="-211.3" font-family="Courier New" font-size="14.00">3&#45;4 </text>
<polyline fill="none" stroke="black" points="2568.38,-203.1 2634.79,-203.1 "/>
<text text-anchor="middle" x="2601.59" y="-186.5" font-family="Courier New" font-size="14.00">5</text>
<text text-anchor="middle" x="2601.59" y="-169.7" font-family="Courier New" font-size="14.00"> </text>
<polyline fill="none" stroke="black" points="2634.79,-161.5 2634.79,-394.3 "/>
<text text-anchor="middle" x="2920.04" y="-377.7" font-family="Courier New" font-size="14.00">value</text>
<text text-anchor="middle" x="2920.04" y="-360.9" font-family="Courier New" font-size="14.00"> &#160;</text>
<polyline fill="none" stroke="black" points="2634.79,-352.7 3205.28,-352.7 "/>
<text text-anchor="middle" x="2920.04" y="-336.1" font-family="Courier New" font-size="14.00">0x000000000000000000000122E2219F098AB128F11BE752DA4FC8E1C6BA2F3F01</text>
<text text-anchor="middle" x="2920.04" y="-319.3" font-family="Courier New" font-size="14.00"> &#160;</text>
<polyline fill="none" stroke="black" points="2634.79,-311.1 3205.28,-311.1 "/>
<text text-anchor="middle" x="2920.04" y="-294.5" font-family="Courier New" font-size="14.00">0x0000000000000000000000000000000000000000000000000000000000000001</text>
<text text-anchor="middle" x="2920.04" y="-277.7" font-family="Courier New" font-size="14.00"> &#160;</text>
<polyline fill="none" stroke="black" points="2634.79,-269.5 3205.28,-269.5 "/>
<text text-anchor="middle" x="2920.04" y="-252.9" font-family="Courier New" font-size="14.00">0x0000000000000000000000000000000000000000000000000000000000000002</text>
<text text-anchor="middle" x="2920.04" y="-236.1" font-family="Courier New" font-size="14.00"> &#160;</text>
<polyline fill="none" stroke="black" points="2634.79,-227.9 3205.28,-227.9 "/>
<text text-anchor="middle" x="2920.04" y="-211.3" font-family="Courier New" font-size="14.00"> </text>
<polyline fill="none" stroke="black" points="2634.79,-203.1 3205.28,-203.1 "/>
<text text-anchor="middle" x="2920.04" y="-186.5" font-family="Courier New" font-size="14.00">0x612073686F727420737472696E6700000000000000000000000000000000001C</text>
<text text-anchor="middle" x="2920.04" y="-169.7" font-family="Courier New" font-size="14.00"> </text>
<polyline fill="none" stroke="black" points="3205.28,-161.5 3205.28,-394.3 "/>
<text text-anchor="middle" x="3644.75" y="-377.7" font-family="Courier New" font-size="14.00">type: variable (bytes)</text>
<text text-anchor="middle" x="3644.75" y="-360.9" font-family="Courier New" font-size="14.00">decoded data</text>
<polyline fill="none" stroke="black" points="3205.28,-352.7 4084.21,-352.7 "/>
<text text-anchor="middle" x="3280.49" y="-327.7" font-family="Courier New" font-size="14.00">unallocated (10)</text>
<polyline fill="none" stroke="black" points="3355.7,-311.1 3355.7,-352.7 "/>
<text text-anchor="middle" x="3456.12" y="-336.1" font-family="Courier New" font-size="14.00">Severity: severity (1)</text>
<text text-anchor="middle" x="3456.12" y="-319.3" font-family="Courier New" font-size="14.00"> Medium &#160;</text>
<polyline fill="none" stroke="black" points="3556.53,-311.1 3556.53,-352.7 "/>
<text text-anchor="middle" x="3753.56" y="-336.1" font-family="Courier New" font-size="14.00">address: token (20)</text>
<text text-anchor="middle" x="3753.56" y="-319.3" font-family="Courier New" font-size="14.00"> 0x22E2219F098Ab128F11BE752Da4fC8e1c6BA2F3f &#160;</text>
<polyline fill="none" stroke="black" points="3950.59,-311.1 3950.59,-352.7 "/>
<text text-anchor="middle" x="4017.4" y="-336.1" font-family="Courier New" font-size="14.00">bool: flag (1)</text>
<text text-anchor="middle" x="4017.4" y="-319.3" font-family="Courier New" font-size="14.00"> true </text>
<polyline fill="none" stroke="black" points="3205.28,-311.1 4084.21,-311.1 "/>
<text text-anchor="middle" x="3644.31" y="-294.5" font-family="Courier New" font-size="14.00">address[]: dynamicAddressArray (32)</text>
<text text-anchor="middle" x="3644.31" y="-277.7" font-family="Courier New" font-size="14.00"> 1 </text>
<polyline fill="none" stroke="black" points="3205.28,-269.5 4084.21,-269.5 "/>
<text text-anchor="middle" x="3644.6" y="-252.9" font-family="Courier New" font-size="14.00">int64[]: dynamicIntArray (32)</text>
<text text-anchor="middle" x="3644.6" y="-236.1" font-family="Courier New" font-size="14.00"> 2 </text>
<polyline fill="none" stroke="black" points="3205.28,-227.9 4084.21,-227.9 "/>
<text text-anchor="middle" x="3644.5" y="-211.3" font-family="Courier New" font-size="14.00">uint256[2]: staticIntArray (64)</text>
<polyline fill="none" stroke="black" points="3205.28,-203.1 4084.21,-203.1 "/>
<text text-anchor="middle" x="3644.4" y="-186.5" font-family="Courier New" font-size="14.00">string: someString (32)</text>
<text text-anchor="middle" x="3644.4" y="-169.7" font-family="Courier New" font-size="14.00"> &quot;a short string&quot; </text>
</g>
<!-- 8&#45;&gt;5 -->
<g id="edge6" class="edge">
<title>8:17&#45;&gt;5</title>
<path fill="none" stroke="black" d="M4084.21,-290.7C4105.04,-290.7 4101.1,-312.43 4120.21,-320.7 4124.75,-322.66 4129.32,-324.58 4133.92,-326.44"/>
<polygon fill="black" stroke="black" points="4132.84,-329.78 4143.42,-330.21 4135.42,-323.27 4132.84,-329.78"/>
</g>
<!-- 8&#45;&gt;6 -->
<g id="edge7" class="edge">
<title>8:19&#45;&gt;6</title>
<path fill="none" stroke="black" d="M4084.21,-248.7C4140.06,-248.7 4198.72,-248.7 4256.79,-248.7"/>
<polygon fill="black" stroke="black" points="4256.86,-252.2 4266.86,-248.7 4256.86,-245.2 4256.86,-252.2"/>
</g>
<!-- 8&#45;&gt;7 -->
<g id="edge8" class="edge">
<title>8:22&#45;&gt;7</title>
<path fill="none" stroke="black" d="M4084.21,-215.7C4107.8,-215.7 4099.42,-187.83 4120.21,-176.7 4168.9,-150.64 4222.9,-131.42 4277.84,-117.32"/>
<polygon fill="black" stroke="black" points="4278.9,-120.66 4287.74,-114.83 4277.19,-113.87 4278.9,-120.66"/>
</g>
<!-- 9&#45;&gt;8 -->
<g id="edge9" class="edge">
<title>9:24&#45;&gt;8</title>
<path fill="none" stroke="black" d="M2068.87,-390.7C2227.26,-390.7 2396.59,-383.34 2557.99,-372.78"/>
<polygon fill="black" stroke="black" points="2558.37,-376.26 2568.12,-372.11 2557.91,-369.28 2558.37,-376.26"/>
</g>
</g>
</svg>
