<?xml version="1.0" encoding="UTF-8" standalone="no"?>
<!DOCTYPE svg PUBLIC "-//W3C//DTD SVG 1.1//EN"
 "http://www.w3.org/Graphics/SVG/1.1/DTD/svg11.dtd">
<!-- Generated by graphviz version 5.0.0 (20220707.1540)
 -->
<!-- Title: StorageDiagram Pages: 1 -->
<svg width="2550pt" height="657pt"
 viewBox="0.00 0.00 2550.36 656.60" xmlns="http://www.w3.org/2000/svg" xmlns:xlink="http://www.w3.org/1999/xlink">
<g id="graph0" class="graph" transform="scale(1 1) rotate(0) translate(4 652.6)">
<title>StorageDiagram</title>
<polygon fill="white" stroke="transparent" points="-4,4 -4,-652.6 2546.36,-652.6 2546.36,4 -4,4"/>
<!-- 10 -->
<g id="node1" class="node">
<title>10</title>
<polygon fill="#f2f2f2" stroke="black" points="0,-363.9 0,-463.1 426.86,-463.1 426.86,-363.9 0,-363.9"/>
<text text-anchor="middle" x="213.43" y="-446.5" font-family="Courier New" font-size="14.00">StructStorage &lt;&lt;Contract&gt;&gt;</text>
<polyline fill="none" stroke="black" points="0,-438.3 426.86,-438.3 "/>
<text text-anchor="middle" x="24.8" y="-421.7" font-family="Courier New" font-size="14.00">slot</text>
<polyline fill="none" stroke="black" points="0,-413.5 49.61,-413.5 "/>
<text text-anchor="middle" x="24.8" y="-396.9" font-family="Courier New" font-size="14.00">0&#45;5</text>
<polyline fill="none" stroke="black" points="0,-388.7 49.61,-388.7 "/>
<text text-anchor="middle" x="24.8" y="-372.1" font-family="Courier New" font-size="14.00">6</text>
<polyline fill="none" stroke="black" points="49.61,-363.9 49.61,-438.3 "/>
<text text-anchor="middle" x="238.23" y="-421.7" font-family="Courier New" font-size="14.00">type: &lt;inherited contract&gt;.variable (bytes)</text>
<polyline fill="none" stroke="black" points="49.61,-413.5 426.86,-413.5 "/>
<text text-anchor="middle" x="237.93" y="-396.9" font-family="Courier New" font-size="14.00">ExampleStruct: exampleStruct (192)</text>
<polyline fill="none" stroke="black" points="49.61,-388.7 426.86,-388.7 "/>
<text text-anchor="middle" x="237.83" y="-372.1" font-family="Courier New" font-size="14.00">ExampleStruct[]: dynamicStructs (32)</text>
</g>
<!-- 4 -->
<g id="node5" class="node">
<title>4</title>
<polygon fill="#f2f2f2" stroke="black" points="462.86,-385.7 462.86,-559.3 1172.97,-559.3 1172.97,-385.7 462.86,-385.7"/>
<text text-anchor="middle" x="817.92" y="-542.7" font-family="Courier New" font-size="14.00">ExampleStruct &lt;&lt;Struct&gt;&gt;</text>
<polyline fill="none" stroke="black" points="462.86,-534.5 1172.97,-534.5 "/>
<text text-anchor="middle" x="487.67" y="-517.9" font-family="Courier New" font-size="14.00">slot</text>
<polyline fill="none" stroke="black" points="462.86,-509.7 512.47,-509.7 "/>
<text text-anchor="middle" x="487.67" y="-493.1" font-family="Courier New" font-size="14.00">0</text>
<polyline fill="none" stroke="black" points="462.86,-484.9 512.47,-484.9 "/>
<text text-anchor="middle" x="487.67" y="-468.3" font-family="Courier New" font-size="14.00">1</text>
<polyline fill="none" stroke="black" points="462.86,-460.1 512.47,-460.1 "/>
<text text-anchor="middle" x="487.67" y="-443.5" font-family="Courier New" font-size="14.00">2</text>
<polyline fill="none" stroke="black" points="462.86,-435.3 512.47,-435.3 "/>
<text text-anchor="middle" x="487.67" y="-418.7" font-family="Courier New" font-size="14.00">3&#45;4</text>
<polyline fill="none" stroke="black" points="462.86,-410.5 512.47,-410.5 "/>
<text text-anchor="middle" x="487.67" y="-393.9" font-family="Courier New" font-size="14.00">5</text>
<polyline fill="none" stroke="black" points="512.47,-385.7 512.47,-534.5 "/>
<text text-anchor="middle" x="842.72" y="-517.9" font-family="Courier New" font-size="14.00">type: variable (bytes)</text>
<polyline fill="none" stroke="black" points="512.47,-509.7 1172.97,-509.7 "/>
<text text-anchor="middle" x="587.68" y="-493.1" font-family="Courier New" font-size="14.00">unallocated (10)</text>
<polyline fill="none" stroke="black" points="662.89,-484.9 662.89,-509.7 "/>
<text text-anchor="middle" x="763.31" y="-493.1" font-family="Courier New" font-size="14.00">Severity: severity (1)</text>
<polyline fill="none" stroke="black" points="863.72,-484.9 863.72,-509.7 "/>
<text text-anchor="middle" x="951.53" y="-493.1" font-family="Courier New" font-size="14.00">address: token (20)</text>
<polyline fill="none" stroke="black" points="1039.35,-484.9 1039.35,-509.7 "/>
<text text-anchor="middle" x="1106.16" y="-493.1" font-family="Courier New" font-size="14.00">bool: flag (1)</text>
<polyline fill="none" stroke="black" points="512.47,-484.9 1172.97,-484.9 "/>
<text text-anchor="middle" x="842.49" y="-468.3" font-family="Courier New" font-size="14.00">address[]: dynamicAddressArray (32)</text>
<polyline fill="none" stroke="black" points="512.47,-460.1 1172.97,-460.1 "/>
<text text-anchor="middle" x="842.29" y="-443.5" font-family="Courier New" font-size="14.00">int64[]: dynamicIntArray (32)</text>
<polyline fill="none" stroke="black" points="512.47,-435.3 1172.97,-435.3 "/>
<text text-anchor="middle" x="842.69" y="-418.7" font-family="Courier New" font-size="14.00">uint256[2]: staticIntArray (64)</text>
<polyline fill="none" stroke="black" points="512.47,-410.5 1172.97,-410.5 "/>
<text text-anchor="middle" x="842.59" y="-393.9" font-family="Courier New" font-size="14.00">string: someString (32)</text>
</g>
<!-- 10&#45;&gt;4 -->
<g id="edge1" class="edge">
<title>10:12&#45;&gt;4</title>
<path fill="none" stroke="black" d="M426.86,-401.5C435.34,-401.5 443.9,-401.66 452.51,-401.98"/>
<polygon fill="black" stroke="black" points="452.52,-405.48 462.66,-402.41 452.81,-398.49 452.52,-405.48"/>
</g>
<!-- 9 -->
<g id="node10" class="node">
<title>9</title>
<polygon fill="#f2f2f2" stroke="black" points="532.67,-260.9 532.67,-352.1 1103.16,-352.1 1103.16,-260.9 532.67,-260.9"/>
<text text-anchor="middle" x="817.92" y="-335.5" font-family="Courier New" font-size="14.00">ExampleStruct[]: dynamicStructs &lt;&lt;Array&gt;&gt;</text>
<text text-anchor="middle" x="817.92" y="-318.7" font-family="Courier New" font-size="14.00">0xf652222313e28459528d920b65115c16c04f3efc82aaedc97be59f3f377c0d3f</text>
<polyline fill="none" stroke="black" points="532.67,-310.5 1103.16,-310.5 "/>
<text text-anchor="middle" x="641.37" y="-293.9" font-family="Courier New" font-size="14.00">offset</text>
<polyline fill="none" stroke="black" points="532.67,-285.7 750.08,-285.7 "/>
<text text-anchor="middle" x="641.37" y="-269.1" font-family="Courier New" font-size="14.00">0&#45;5</text>
<polyline fill="none" stroke="black" points="750.08,-260.9 750.08,-310.5 "/>
<text text-anchor="middle" x="926.49" y="-293.9" font-family="Courier New" font-size="14.00">type: variable (bytes)</text>
<polyline fill="none" stroke="black" points="750.08,-285.7 1102.91,-285.7 "/>
<text text-anchor="middle" x="926.39" y="-269.1" font-family="Courier New" font-size="14.00">ExampleStruct (192)</text>
</g>
<!-- 10&#45;&gt;9 -->
<g id="edge2" class="edge">
<title>10:25&#45;&gt;9</title>
<path fill="none" stroke="black" d="M426.86,-376.5C493.31,-376.5 565.14,-366.54 628.83,-354.13"/>
<polygon fill="black" stroke="black" points="629.85,-357.49 638.98,-352.12 628.49,-350.63 629.85,-357.49"/>
</g>
<!-- 1 -->
<g id="node2" class="node">
<title>1</title>
<polygon fill="#f2f2f2" stroke="black" points="1287.17,-556.9 1287.17,-648.1 1857.66,-648.1 1857.66,-556.9 1287.17,-556.9"/>
<text text-anchor="middle" x="1572.42" y="-631.5" font-family="Courier New" font-size="14.00">address[]: dynamicAddressArray &lt;&lt;Array&gt;&gt;</text>
<text text-anchor="middle" x="1572.42" y="-614.7" font-family="Courier New" font-size="14.00">0xb10e2d527612073b26eecdfd717e6a320cf44b4afac2b0732d9fcbe2b7fa0cf6</text>
<polyline fill="none" stroke="black" points="1287.17,-606.5 1857.66,-606.5 "/>
<text text-anchor="middle" x="1379.38" y="-589.9" font-family="Courier New" font-size="14.00">offset</text>
<polyline fill="none" stroke="black" points="1287.17,-581.7 1471.58,-581.7 "/>
<text text-anchor="middle" x="1379.38" y="-565.1" font-family="Courier New" font-size="14.00">0</text>
<polyline fill="none" stroke="black" points="1471.58,-556.9 1471.58,-606.5 "/>
<text text-anchor="middle" x="1664.2" y="-589.9" font-family="Courier New" font-size="14.00">type: variable (bytes)</text>
<polyline fill="none" stroke="black" points="1471.58,-581.7 1856.82,-581.7 "/>
<text text-anchor="middle" x="1576.29" y="-565.1" font-family="Courier New" font-size="14.00">unallocated (12)</text>
<polyline fill="none" stroke="black" points="1681,-556.9 1681,-581.7 "/>
<text text-anchor="middle" x="1768.91" y="-565.1" font-family="Courier New" font-size="14.00">address (20)</text>
</g>
<!-- 2 -->
<g id="node3" class="node">
<title>2</title>
<polygon fill="#f2f2f2" stroke="black" points="1287.17,-446.9 1287.17,-538.1 1857.66,-538.1 1857.66,-446.9 1287.17,-446.9"/>
<text text-anchor="middle" x="1572.42" y="-521.5" font-family="Courier New" font-size="14.00">int64[]: dynamicIntArray &lt;&lt;Array&gt;&gt;</text>
<text text-anchor="middle" x="1572.42" y="-504.7" font-family="Courier New" font-size="14.00">0x405787fa12a823e0f2b7631cc41b3ba8828b3321ca811111fa75cd3aa3bb5ace</text>
<polyline fill="none" stroke="black" points="1287.17,-496.5 1857.66,-496.5 "/>
<text text-anchor="middle" x="1385.88" y="-479.9" font-family="Courier New" font-size="14.00">offset</text>
<polyline fill="none" stroke="black" points="1287.17,-471.7 1484.58,-471.7 "/>
<text text-anchor="middle" x="1385.88" y="-455.1" font-family="Courier New" font-size="14.00">0</text>
<polyline fill="none" stroke="black" points="1484.58,-446.9 1484.58,-496.5 "/>
<text text-anchor="middle" x="1671.1" y="-479.9" font-family="Courier New" font-size="14.00">type: variable (bytes)</text>
<polyline fill="none" stroke="black" points="1484.58,-471.7 1857.62,-471.7 "/>
<text text-anchor="middle" x="1592.29" y="-455.1" font-family="Courier New" font-size="14.00">unallocated (24)</text>
<polyline fill="none" stroke="black" points="1700,-446.9 1700,-471.7 "/>
<text text-anchor="middle" x="1778.81" y="-455.1" font-family="Courier New" font-size="14.00">int64 (8)</text>
</g>
<!-- 3 -->
<g id="node4" class="node">
<title>3</title>
<polygon fill="#f2f2f2" stroke="black" points="1413.19,-328.9 1413.19,-428.1 1731.64,-428.1 1731.64,-328.9 1413.19,-328.9"/>
<text text-anchor="middle" x="1572.42" y="-411.5" font-family="Courier New" font-size="14.00">uint256[2]: staticIntArray &lt;&lt;Array&gt;&gt;</text>
<polyline fill="none" stroke="black" points="1413.19,-403.3 1731.64,-403.3 "/>
<text text-anchor="middle" x="1455" y="-386.7" font-family="Courier New" font-size="14.00">slot</text>
<polyline fill="none" stroke="black" points="1413.19,-378.5 1496.8,-378.5 "/>
<text text-anchor="middle" x="1455" y="-361.9" font-family="Courier New" font-size="14.00">3</text>
<polyline fill="none" stroke="black" points="1413.19,-353.7 1496.8,-353.7 "/>
<text text-anchor="middle" x="1455" y="-337.1" font-family="Courier New" font-size="14.00">4</text>
<polyline fill="none" stroke="black" points="1496.8,-328.9 1496.8,-403.3 "/>
<text text-anchor="middle" x="1614.22" y="-386.7" font-family="Courier New" font-size="14.00">type: variable (bytes)</text>
<polyline fill="none" stroke="black" points="1496.8,-378.5 1731.63,-378.5 "/>
<text text-anchor="middle" x="1614.21" y="-361.9" font-family="Courier New" font-size="14.00">uint256 (32)</text>
<polyline fill="none" stroke="black" points="1496.8,-353.7 1731.63,-353.7 "/>
<text text-anchor="middle" x="1614.21" y="-337.1" font-family="Courier New" font-size="14.00">uint256 (32)</text>
</g>
<!-- 4&#45;&gt;1 -->
<g id="edge3" class="edge">
<title>4:5&#45;&gt;1</title>
<path fill="none" stroke="black" d="M1172.97,-472.5C1209.94,-472.5 1179.24,-525.51 1208.97,-547.5 1229.72,-562.86 1253,-574.73 1277.49,-583.83"/>
<polygon fill="black" stroke="black" points="1276.33,-587.13 1286.93,-587.18 1278.68,-580.54 1276.33,-587.13"/>
</g>
<!-- 4&#45;&gt;2 -->
<g id="edge4" class="edge">
<title>4:7&#45;&gt;2</title>
<path fill="none" stroke="black" d="M1172.92,-447.5C1206.58,-447.5 1241.74,-449.11 1276.64,-451.71"/>
<polygon fill="black" stroke="black" points="1276.72,-455.23 1286.96,-452.51 1277.27,-448.25 1276.72,-455.23"/>
</g>
<!-- 4&#45;&gt;3 -->
<g id="edge5" class="edge">
<title>4:10&#45;&gt;3</title>
<path fill="none" stroke="black" d="M1172.97,-422.5C1248.59,-422.5 1331.8,-414.57 1402.53,-405.45"/>
<polygon fill="black" stroke="black" points="1403.41,-408.86 1412.87,-404.09 1402.5,-401.92 1403.41,-408.86"/>
</g>
<!-- 5 -->
<g id="node6" class="node">
<title>5</title>
<polygon fill="#f2f2f2" stroke="black" points="1971.87,-245.9 1971.87,-337.1 2542.36,-337.1 2542.36,-245.9 1971.87,-245.9"/>
<text text-anchor="middle" x="2257.12" y="-320.5" font-family="Courier New" font-size="14.00">address[]: dynamicAddressArray &lt;&lt;Array&gt;&gt;</text>
<text text-anchor="middle" x="2257.12" y="-303.7" font-family="Courier New" font-size="14.00">0x768c3a22b1e4688c94525eb9bc2cf1ce7601fc9e871dc6e10fc44f0f06340ce1</text>
<polyline fill="none" stroke="black" points="1971.87,-295.5 2542.36,-295.5 "/>
<text text-anchor="middle" x="2064.08" y="-278.9" font-family="Courier New" font-size="14.00">offset</text>
<polyline fill="none" stroke="black" points="1971.87,-270.7 2156.28,-270.7 "/>
<text text-anchor="middle" x="2064.08" y="-254.1" font-family="Courier New" font-size="14.00">0</text>
<polyline fill="none" stroke="black" points="2156.28,-245.9 2156.28,-295.5 "/>
<text text-anchor="middle" x="2348.9" y="-278.9" font-family="Courier New" font-size="14.00">type: variable (bytes)</text>
<polyline fill="none" stroke="black" points="2156.28,-270.7 2541.52,-270.7 "/>
<text text-anchor="middle" x="2260.99" y="-254.1" font-family="Courier New" font-size="14.00">unallocated (12)</text>
<polyline fill="none" stroke="black" points="2365.7,-245.9 2365.7,-270.7 "/>
<text text-anchor="middle" x="2453.61" y="-254.1" font-family="Courier New" font-size="14.00">address (20)</text>
</g>
<!-- 6 -->
<g id="node7" class="node">
<title>6</title>
<polygon fill="#f2f2f2" stroke="black" points="1971.87,-135.9 1971.87,-227.1 2542.36,-227.1 2542.36,-135.9 1971.87,-135.9"/>
<text text-anchor="middle" x="2257.12" y="-210.5" font-family="Courier New" font-size="14.00">int64[]: dynamicIntArray &lt;&lt;Array&gt;&gt;</text>
<text text-anchor="middle" x="2257.12" y="-193.7" font-family="Courier New" font-size="14.00">0xaf786ca8f985b8adb0de73df0052ad2ed91db8313035df9caa6938d80f1945c8</text>
<polyline fill="none" stroke="black" points="1971.87,-185.5 2542.36,-185.5 "/>
<text text-anchor="middle" x="2070.58" y="-168.9" font-family="Courier New" font-size="14.00">offset</text>
<polyline fill="none" stroke="black" points="1971.87,-160.7 2169.28,-160.7 "/>
<text text-anchor="middle" x="2070.58" y="-144.1" font-family="Courier New" font-size="14.00">0</text>
<polyline fill="none" stroke="black" points="2169.28,-135.9 2169.28,-185.5 "/>
<text text-anchor="middle" x="2355.8" y="-168.9" font-family="Courier New" font-size="14.00">type: variable (bytes)</text>
<polyline fill="none" stroke="black" points="2169.28,-160.7 2542.31,-160.7 "/>
<text text-anchor="middle" x="2276.99" y="-144.1" font-family="Courier New" font-size="14.00">unallocated (24)</text>
<polyline fill="none" stroke="black" points="2384.7,-135.9 2384.7,-160.7 "/>
<text text-anchor="middle" x="2463.51" y="-144.1" font-family="Courier New" font-size="14.00">int64 (8)</text>
</g>
<!-- 7 -->
<g id="node8" class="node">
<title>7</title>
<polygon fill="#f2f2f2" stroke="black" points="1971.87,-0.5 1971.87,-116.5 2542.36,-116.5 2542.36,-0.5 1971.87,-0.5"/>
<text text-anchor="middle" x="2257.12" y="-99.9" font-family="Courier New" font-size="14.00">uint256[2]: staticIntArray &lt;&lt;Array&gt;&gt;</text>
<text text-anchor="middle" x="2257.12" y="-83.1" font-family="Courier New" font-size="14.00">0xf652222313e28459528d920b65115c16c04f3efc82aaedc97be59f3f377c0d3f</text>
<polyline fill="none" stroke="black" points="1971.87,-74.9 2542.36,-74.9 "/>
<text text-anchor="middle" x="2080.58" y="-58.3" font-family="Courier New" font-size="14.00">offset</text>
<polyline fill="none" stroke="black" points="1971.87,-50.1 2189.28,-50.1 "/>
<text text-anchor="middle" x="2080.58" y="-33.5" font-family="Courier New" font-size="14.00">3</text>
<polyline fill="none" stroke="black" points="1971.87,-25.3 2189.28,-25.3 "/>
<text text-anchor="middle" x="2080.58" y="-8.7" font-family="Courier New" font-size="14.00">4</text>
<polyline fill="none" stroke="black" points="2189.28,-0.5 2189.28,-74.9 "/>
<text text-anchor="middle" x="2365.7" y="-58.3" font-family="Courier New" font-size="14.00">type: variable (bytes)</text>
<polyline fill="none" stroke="black" points="2189.28,-50.1 2542.11,-50.1 "/>
<text text-anchor="middle" x="2365.69" y="-33.5" font-family="Courier New" font-size="14.00">uint256 (32)</text>
<polyline fill="none" stroke="black" points="2189.28,-25.3 2542.11,-25.3 "/>
<text text-anchor="middle" x="2365.69" y="-8.7" font-family="Courier New" font-size="14.00">uint256 (32)</text>
</g>
<!-- 8 -->
<g id="node9" class="node">
<title>8</title>
<polygon fill="#f2f2f2" stroke="black" points="1208.97,-119.3 1208.97,-309.7 1935.87,-309.7 1935.87,-119.3 1208.97,-119.3"/>
<text text-anchor="middle" x="1572.42" y="-293.1" font-family="Courier New" font-size="14.00">ExampleStruct &lt;&lt;Struct&gt;&gt;</text>
<text text-anchor="middle" x="1572.42" y="-276.3" font-family="Courier New" font-size="14.00">0xf652222313e28459528d920b65115c16c04f3efc82aaedc97be59f3f377c0d3f</text>
<polyline fill="none" stroke="black" points="1208.97,-268.1 1935.87,-268.1 "/>
<text text-anchor="middle" x="1242.17" y="-251.5" font-family="Courier New" font-size="14.00">offset</text>
<polyline fill="none" stroke="black" points="1208.97,-243.3 1275.38,-243.3 "/>
<text text-anchor="middle" x="1242.17" y="-226.7" font-family="Courier New" font-size="14.00">0</text>
<polyline fill="none" stroke="black" points="1208.97,-218.5 1275.38,-218.5 "/>
<text text-anchor="middle" x="1242.17" y="-201.9" font-family="Courier New" font-size="14.00">1</text>
<polyline fill="none" stroke="black" points="1208.97,-193.7 1275.38,-193.7 "/>
<text text-anchor="middle" x="1242.17" y="-177.1" font-family="Courier New" font-size="14.00">2</text>
<polyline fill="none" stroke="black" points="1208.97,-168.9 1275.38,-168.9 "/>
<text text-anchor="middle" x="1242.17" y="-152.3" font-family="Courier New" font-size="14.00">3&#45;4</text>
<polyline fill="none" stroke="black" points="1208.97,-144.1 1275.38,-144.1 "/>
<text text-anchor="middle" x="1242.17" y="-127.5" font-family="Courier New" font-size="14.00">5</text>
<polyline fill="none" stroke="black" points="1275.38,-119.3 1275.38,-268.1 "/>
<text text-anchor="middle" x="1605.62" y="-251.5" font-family="Courier New" font-size="14.00">type: variable (bytes)</text>
<polyline fill="none" stroke="black" points="1275.38,-243.3 1935.87,-243.3 "/>
<text text-anchor="middle" x="1350.59" y="-226.7" font-family="Courier New" font-size="14.00">unallocated (10)</text>
<polyline fill="none" stroke="black" points="1425.8,-218.5 1425.8,-243.3 "/>
<text text-anchor="middle" x="1526.21" y="-226.7" font-family="Courier New" font-size="14.00">Severity: severity (1)</text>
<polyline fill="none" stroke="black" points="1626.63,-218.5 1626.63,-243.3 "/>
<text text-anchor="middle" x="1714.44" y="-226.7" font-family="Courier New" font-size="14.00">address: token (20)</text>
<polyline fill="none" stroke="black" points="1802.25,-218.5 1802.25,-243.3 "/>
<text text-anchor="middle" x="1869.06" y="-226.7" font-family="Courier New" font-size="14.00">bool: flag (1)</text>
<polyline fill="none" stroke="black" points="1275.38,-218.5 1935.87,-218.5 "/>
<text text-anchor="middle" x="1605.4" y="-201.9" font-family="Courier New" font-size="14.00">address[]: dynamicAddressArray (32)</text>
<polyline fill="none" stroke="black" points="1275.38,-193.7 1935.87,-193.7 "/>
<text text-anchor="middle" x="1605.19" y="-177.1" font-family="Courier New" font-size="14.00">int64[]: dynamicIntArray (32)</text>
<polyline fill="none" stroke="black" points="1275.38,-168.9 1935.87,-168.9 "/>
<text text-anchor="middle" x="1605.6" y="-152.3" font-family="Courier New" font-size="14.00">uint256[2]: staticIntArray (64)</text>
<polyline fill="none" stroke="black" points="1275.38,-144.1 1935.87,-144.1 "/>
<text text-anchor="middle" x="1605.49" y="-127.5" font-family="Courier New" font-size="14.00">string: someString (32)</text>
</g>
<!-- 8&#45;&gt;5 -->
<g id="edge6" class="edge">
<title>8:17&#45;&gt;5</title>
<path fill="none" stroke="black" d="M1935.87,-206.5C1956.7,-206.5 1953.05,-227.57 1971.87,-236.5 1975.77,-238.35 1979.72,-240.13 1983.72,-241.86"/>
<polygon fill="black" stroke="black" points="1982.58,-245.17 1993.15,-245.78 1985.26,-238.71 1982.58,-245.17"/>
</g>
<!-- 8&#45;&gt;6 -->
<g id="edge7" class="edge">
<title>8:19&#45;&gt;6</title>
<path fill="none" stroke="black" d="M1935.87,-181.5C1944.26,-181.5 1952.78,-181.5 1961.37,-181.5"/>
<polygon fill="black" stroke="black" points="1961.5,-185 1971.5,-181.5 1961.5,-178 1961.5,-185"/>
</g>
<!-- 8&#45;&gt;7 -->
<g id="edge8" class="edge">
<title>8:22&#45;&gt;7</title>
<path fill="none" stroke="black" d="M1935.87,-156.5C1956.7,-156.5 1953.25,-135.84 1971.87,-126.5 1975.76,-124.55 1979.71,-122.65 1983.71,-120.81"/>
<polygon fill="black" stroke="black" points="1985.43,-123.88 1993.13,-116.6 1982.57,-117.48 1985.43,-123.88"/>
</g>
<!-- 9&#45;&gt;8 -->
<g id="edge9" class="edge">
<title>9:24&#45;&gt;8</title>
<path fill="none" stroke="black" d="M1103.92,-273.5C1134.73,-273.5 1166.61,-272.22 1198.56,-270.04"/>
<polygon fill="black" stroke="black" points="1199.2,-273.51 1208.93,-269.3 1198.71,-266.52 1199.2,-273.51"/>
</g>
</g>
</svg>
