<?xml version="1.0" encoding="UTF-8" standalone="no"?>
<!DOCTYPE svg PUBLIC "-//W3C//DTD SVG 1.1//EN"
 "http://www.w3.org/Graphics/SVG/1.1/DTD/svg11.dtd">
<!-- Generated by graphviz version 5.0.0 (20220707.1540)
 -->
<!-- Title: UmlClassDiagram Pages: 1 -->
<svg width="1128pt" height="258pt"
 viewBox="0.00 0.00 1127.98 258.20" xmlns="http://www.w3.org/2000/svg" xmlns:xlink="http://www.w3.org/1999/xlink">
<g id="graph0" class="graph" transform="scale(1 1) rotate(0) translate(4 254.2)">
<title>UmlClassDiagram</title>
<polygon fill="white" stroke="transparent" points="-4,4 -4,-254.2 1123.98,-254.2 1123.98,4 -4,4"/>
<!-- 0 -->
<g id="node1" class="node">
<title>0</title>
<polygon fill="#f2f2f2" stroke="black" points="3.88,-0.5 3.88,-58.9 342.94,-58.9 342.94,-0.5 3.88,-0.5"/>
<text text-anchor="middle" x="173.41" y="-42.3" font-family="Times,serif" font-size="14.00">&lt;&lt;Abstract&gt;&gt;</text>
<text text-anchor="middle" x="173.41" y="-25.5" font-family="Times,serif" font-size="14.00">BaseAccount</text>
<text text-anchor="middle" x="173.41" y="-8.7" font-family="Times,serif" font-size="14.00">../../../account&#45;abstraction/contracts/core/BaseAccount.sol</text>
</g>
<!-- 8 -->
<g id="node2" class="node">
<title>8</title>
<polygon fill="#f2f2f2" stroke="black" points="0,-95.9 0,-154.3 346.82,-154.3 346.82,-95.9 0,-95.9"/>
<text text-anchor="middle" x="173.41" y="-137.7" font-family="Times,serif" font-size="14.00">&lt;&lt;Interface&gt;&gt;</text>
<text text-anchor="middle" x="173.41" y="-120.9" font-family="Times,serif" font-size="14.00">IAccount</text>
<text text-anchor="middle" x="173.41" y="-104.1" font-family="Times,serif" font-size="14.00">../../../account&#45;abstraction/contracts/interfaces/IAccount.sol</text>
</g>
<!-- 0&#45;&gt;8 -->
<g id="edge1" class="edge">
<title>0&#45;&gt;8</title>
<path fill="none" stroke="black" stroke-dasharray="5,2" d="M173.41,-58.98C173.41,-61.06 173.41,-63.2 173.41,-65.38"/>
<polygon fill="none" stroke="black" points="162.91,-65.6 173.41,-95.6 183.91,-65.6 162.91,-65.6"/>
</g>
<!-- 10 -->
<g id="node3" class="node">
<title>10</title>
<polygon fill="#f2f2f2" stroke="black" points="364.38,-95.9 364.38,-154.3 724.44,-154.3 724.44,-95.9 364.38,-95.9"/>
<text text-anchor="middle" x="544.41" y="-137.7" font-family="Times,serif" font-size="14.00">&lt;&lt;Interface&gt;&gt;</text>
<text text-anchor="middle" x="544.41" y="-120.9" font-family="Times,serif" font-size="14.00">IEntryPoint</text>
<text text-anchor="middle" x="544.41" y="-104.1" font-family="Times,serif" font-size="14.00">../../../account&#45;abstraction/contracts/interfaces/IEntryPoint.sol</text>
</g>
<!-- 0&#45;&gt;10 -->
<g id="edge3" class="edge">
<title>0&#45;&gt;10</title>
<path fill="none" stroke="black" stroke-dasharray="5,2" d="M285.48,-58.91C328.71,-69.8 378.29,-82.28 422.41,-93.39"/>
<polygon fill="black" stroke="black" points="421.78,-96.84 432.33,-95.88 423.48,-90.05 421.78,-96.84"/>
</g>
<!-- 20 -->
<g id="node5" class="node">
<title>20</title>
<polygon fill="#f2f2f2" stroke="black" points="742.84,-95.9 742.84,-154.3 1119.98,-154.3 1119.98,-95.9 742.84,-95.9"/>
<text text-anchor="middle" x="931.41" y="-137.7" font-family="Times,serif" font-size="14.00">&lt;&lt;Library&gt;&gt;</text>
<text text-anchor="middle" x="931.41" y="-120.9" font-family="Times,serif" font-size="14.00">UserOperationLib</text>
<text text-anchor="middle" x="931.41" y="-104.1" font-family="Times,serif" font-size="14.00">../../../account&#45;abstraction/contracts/interfaces/UserOperation.sol</text>
</g>
<!-- 0&#45;&gt;20 -->
<g id="edge2" class="edge">
<title>0&#45;&gt;20</title>
<path fill="none" stroke="black" stroke-dasharray="5,2" d="M342.96,-49C451.39,-61.01 595.29,-77.53 732.5,-95.29"/>
<polygon fill="black" stroke="black" points="732.42,-98.81 742.78,-96.63 733.32,-91.87 732.42,-98.81"/>
</g>
<!-- 16 -->
<g id="node4" class="node">
<title>16</title>
<polygon fill="#f2f2f2" stroke="black" points="354.29,-191.3 354.29,-249.7 734.53,-249.7 734.53,-191.3 354.29,-191.3"/>
<text text-anchor="middle" x="544.41" y="-233.1" font-family="Times,serif" font-size="14.00">&lt;&lt;Interface&gt;&gt;</text>
<text text-anchor="middle" x="544.41" y="-216.3" font-family="Times,serif" font-size="14.00">IStakeManager</text>
<text text-anchor="middle" x="544.41" y="-199.5" font-family="Times,serif" font-size="14.00">../../../account&#45;abstraction/contracts/interfaces/IStakeManager.sol</text>
</g>
<!-- 10&#45;&gt;16 -->
<g id="edge4" class="edge">
<title>10&#45;&gt;16</title>
<path fill="none" stroke="black" stroke-dasharray="5,2" d="M544.41,-154.38C544.41,-156.46 544.41,-158.6 544.41,-160.78"/>
<polygon fill="none" stroke="black" points="533.91,-161 544.41,-191 554.91,-161 533.91,-161"/>
</g>
</g>
</svg>
