<?xml version="1.0" encoding="UTF-8" standalone="no"?>
<!DOCTYPE svg PUBLIC "-//W3C//DTD SVG 1.1//EN"
 "http://www.w3.org/Graphics/SVG/1.1/DTD/svg11.dtd">
<!-- Generated by graphviz version 5.0.0 (20220707.1540)
 -->
<!-- Title: UmlClassDiagram Pages: 1 -->
<svg width="2177pt" height="878pt"
 viewBox="0.00 0.00 2177.45 878.20" xmlns="http://www.w3.org/2000/svg" xmlns:xlink="http://www.w3.org/1999/xlink">
<g id="graph0" class="graph" transform="scale(1 1) rotate(0) translate(4 874.2)">
<title>UmlClassDiagram</title>
<polygon fill="white" stroke="transparent" points="-4,4 -4,-874.2 2173.45,-874.2 2173.45,4 -4,4"/>
<!-- 0 -->
<g id="node1" class="node">
<title>0</title>
<polygon fill="#f2f2f2" stroke="black" points="439.75,-0.5 439.75,-276.5 1156.01,-276.5 1156.01,-0.5 439.75,-0.5"/>
<text text-anchor="middle" x="797.88" y="-259.9" font-family="Times,serif" font-size="14.00">&lt;&lt;Abstract&gt;&gt;</text>
<text text-anchor="middle" x="797.88" y="-243.1" font-family="Times,serif" font-size="14.00">BaseAccount</text>
<text text-anchor="middle" x="797.88" y="-226.3" font-family="Times,serif" font-size="14.00">../../../account&#45;abstraction/contracts/core/BaseAccount.sol</text>
<polyline fill="none" stroke="black" points="439.75,-218.1 1156.01,-218.1 "/>
<text text-anchor="start" x="447.75" y="-201.5" font-family="Times,serif" font-size="14.00">Internal:</text>
<text text-anchor="start" x="447.75" y="-184.7" font-family="Times,serif" font-size="14.00"> &#160;&#160;SIG_VALIDATION_FAILED: uint256</text>
<polyline fill="none" stroke="black" points="439.75,-176.5 1156.01,-176.5 "/>
<text text-anchor="start" x="447.75" y="-159.9" font-family="Times,serif" font-size="14.00">Internal:</text>
<text text-anchor="start" x="447.75" y="-143.1" font-family="Times,serif" font-size="14.00"> &#160;&#160;&#160;&lt;&lt;abstract&gt;&gt; _validateSignature(userOp: UserOperation, userOpHash: bytes32): (validationData: uint256)</text>
<text text-anchor="start" x="447.75" y="-126.3" font-family="Times,serif" font-size="14.00"> &#160;&#160;&#160;&lt;&lt;abstract&gt;&gt; _validateAndUpdateNonce(userOp: UserOperation)</text>
<text text-anchor="start" x="447.75" y="-109.5" font-family="Times,serif" font-size="14.00"> &#160;&#160;&#160;_requireFromEntryPoint()</text>
<text text-anchor="start" x="447.75" y="-92.7" font-family="Times,serif" font-size="14.00"> &#160;&#160;&#160;_payPrefund(missingAccountFunds: uint256)</text>
<text text-anchor="start" x="447.75" y="-75.9" font-family="Times,serif" font-size="14.00">External:</text>
<text text-anchor="start" x="447.75" y="-59.1" font-family="Times,serif" font-size="14.00"> &#160;&#160;&#160;validateUserOp(userOp: UserOperation, userOpHash: bytes32, missingAccountFunds: uint256): (validationData: uint256)</text>
<text text-anchor="start" x="447.75" y="-42.3" font-family="Times,serif" font-size="14.00">Public:</text>
<text text-anchor="start" x="447.75" y="-25.5" font-family="Times,serif" font-size="14.00"> &#160;&#160;&#160;&lt;&lt;abstract&gt;&gt; nonce(): uint256</text>
<text text-anchor="start" x="447.75" y="-8.7" font-family="Times,serif" font-size="14.00"> &#160;&#160;&#160;&lt;&lt;abstract&gt;&gt; entryPoint(): IEntryPoint</text>
</g>
<!-- 8 -->
<g id="node2" class="node">
<title>8</title>
<polygon fill="#f2f2f2" stroke="black" points="0,-397.5 0,-497.5 719.76,-497.5 719.76,-397.5 0,-397.5"/>
<text text-anchor="middle" x="359.88" y="-480.9" font-family="Times,serif" font-size="14.00">&lt;&lt;Interface&gt;&gt;</text>
<text text-anchor="middle" x="359.88" y="-464.1" font-family="Times,serif" font-size="14.00">IAccount</text>
<text text-anchor="middle" x="359.88" y="-447.3" font-family="Times,serif" font-size="14.00">../../../account&#45;abstraction/contracts/interfaces/IAccount.sol</text>
<polyline fill="none" stroke="black" points="0,-439.1 719.76,-439.1 "/>
<text text-anchor="start" x="8" y="-422.5" font-family="Times,serif" font-size="14.00">External:</text>
<text text-anchor="start" x="8" y="-405.7" font-family="Times,serif" font-size="14.00"> &#160;&#160;&#160;&#160;validateUserOp(userOp: UserOperation, userOpHash: bytes32, missingAccountFunds: uint256): (validationData: uint256)</text>
</g>
<!-- 0&#45;&gt;8 -->
<g id="edge1" class="edge">
<title>0&#45;&gt;8</title>
<path fill="none" stroke="black" stroke-dasharray="5,2" d="M602.26,-276.61C550.93,-312.59 497.87,-349.78 454.53,-380.16"/>
<polygon fill="none" stroke="black" points="448.43,-371.61 429.89,-397.43 460.48,-388.81 448.43,-371.61"/>
</g>
<!-- 10 -->
<g id="node3" class="node">
<title>10</title>
<polygon fill="#f2f2f2" stroke="black" points="737.98,-313.5 737.98,-581.5 1735.78,-581.5 1735.78,-313.5 737.98,-313.5"/>
<text text-anchor="middle" x="1236.88" y="-564.9" font-family="Times,serif" font-size="14.00">&lt;&lt;Interface&gt;&gt;</text>
<text text-anchor="middle" x="1236.88" y="-548.1" font-family="Times,serif" font-size="14.00">IEntryPoint</text>
<text text-anchor="middle" x="1236.88" y="-531.3" font-family="Times,serif" font-size="14.00">../../../account&#45;abstraction/contracts/interfaces/IEntryPoint.sol</text>
<polyline fill="none" stroke="black" points="737.98,-523.1 1735.78,-523.1 "/>
<text text-anchor="start" x="745.98" y="-506.5" font-family="Times,serif" font-size="14.00">External:</text>
<text text-anchor="start" x="745.98" y="-489.7" font-family="Times,serif" font-size="14.00"> &#160;&#160;&#160;&#160;handleOps(ops: UserOperation[], beneficiary: address)</text>
<text text-anchor="start" x="745.98" y="-472.9" font-family="Times,serif" font-size="14.00"> &#160;&#160;&#160;&#160;handleAggregatedOps(opsPerAggregator: UserOpsPerAggregator[], beneficiary: address)</text>
<text text-anchor="start" x="745.98" y="-456.1" font-family="Times,serif" font-size="14.00"> &#160;&#160;&#160;&#160;getUserOpHash(userOp: UserOperation): bytes32</text>
<text text-anchor="start" x="745.98" y="-439.3" font-family="Times,serif" font-size="14.00"> &#160;&#160;&#160;&#160;simulateValidation(userOp: UserOperation)</text>
<text text-anchor="start" x="745.98" y="-422.5" font-family="Times,serif" font-size="14.00"> &#160;&#160;&#160;&#160;getSenderAddress(initCode: bytes)</text>
<text text-anchor="start" x="745.98" y="-405.7" font-family="Times,serif" font-size="14.00"> &#160;&#160;&#160;&#160;simulateHandleOp(op: UserOperation, target: address, targetCallData: bytes)</text>
<text text-anchor="start" x="745.98" y="-388.9" font-family="Times,serif" font-size="14.00">Public:</text>
<text text-anchor="start" x="745.98" y="-372.1" font-family="Times,serif" font-size="14.00"> &#160;&#160;&#160;&lt;&lt;event&gt;&gt; UserOperationEvent(userOpHash: bytes32, sender: address, paymaster: address, nonce: uint256, success: bool, actualGasCost: uint256, actualGasUsed: uint256)</text>
<text text-anchor="start" x="745.98" y="-355.3" font-family="Times,serif" font-size="14.00"> &#160;&#160;&#160;&lt;&lt;event&gt;&gt; AccountDeployed(userOpHash: bytes32, sender: address, factory: address, paymaster: address)</text>
<text text-anchor="start" x="745.98" y="-338.5" font-family="Times,serif" font-size="14.00"> &#160;&#160;&#160;&lt;&lt;event&gt;&gt; UserOperationRevertReason(userOpHash: bytes32, sender: address, nonce: uint256, revertReason: bytes)</text>
<text text-anchor="start" x="745.98" y="-321.7" font-family="Times,serif" font-size="14.00"> &#160;&#160;&#160;&lt;&lt;event&gt;&gt; SignatureAggregatorChanged(aggregator: address)</text>
</g>
<!-- 0&#45;&gt;10 -->
<g id="edge3" class="edge">
<title>0&#45;&gt;10</title>
<path fill="none" stroke="black" stroke-dasharray="5,2" d="M993.95,-276.61C1008.56,-286.83 1023.31,-297.15 1037.94,-307.38"/>
<polygon fill="black" stroke="black" points="1036.33,-310.52 1046.53,-313.39 1040.34,-304.79 1036.33,-310.52"/>
</g>
<!-- 19 -->
<g id="node4" class="node">
<title>19</title>
<polygon fill="#f2f2f2" stroke="black" points="1311.31,-618.5 1311.31,-869.7 1688.45,-869.7 1688.45,-618.5 1311.31,-618.5"/>
<text text-anchor="middle" x="1499.88" y="-853.1" font-family="Times,serif" font-size="14.00">&lt;&lt;Struct&gt;&gt;</text>
<text text-anchor="middle" x="1499.88" y="-836.3" font-family="Times,serif" font-size="14.00">UserOperation</text>
<text text-anchor="middle" x="1499.88" y="-819.5" font-family="Times,serif" font-size="14.00">../../../account&#45;abstraction/contracts/interfaces/UserOperation.sol</text>
<polyline fill="none" stroke="black" points="1311.31,-811.3 1688.45,-811.3 "/>
<text text-anchor="start" x="1319.31" y="-794.7" font-family="Times,serif" font-size="14.00">sender: address</text>
<text text-anchor="start" x="1319.31" y="-777.9" font-family="Times,serif" font-size="14.00">nonce: uint256</text>
<text text-anchor="start" x="1319.31" y="-761.1" font-family="Times,serif" font-size="14.00">initCode: bytes</text>
<text text-anchor="start" x="1319.31" y="-744.3" font-family="Times,serif" font-size="14.00">callData: bytes</text>
<text text-anchor="start" x="1319.31" y="-727.5" font-family="Times,serif" font-size="14.00">callGasLimit: uint256</text>
<text text-anchor="start" x="1319.31" y="-710.7" font-family="Times,serif" font-size="14.00">verificationGasLimit: uint256</text>
<text text-anchor="start" x="1319.31" y="-693.9" font-family="Times,serif" font-size="14.00">preVerificationGas: uint256</text>
<text text-anchor="start" x="1319.31" y="-677.1" font-family="Times,serif" font-size="14.00">maxFeePerGas: uint256</text>
<text text-anchor="start" x="1319.31" y="-660.3" font-family="Times,serif" font-size="14.00">maxPriorityFeePerGas: uint256</text>
<text text-anchor="start" x="1319.31" y="-643.5" font-family="Times,serif" font-size="14.00">paymasterAndData: bytes</text>
<text text-anchor="start" x="1319.31" y="-626.7" font-family="Times,serif" font-size="14.00">signature: bytes</text>
</g>
<!-- 0&#45;&gt;19 -->
<g id="edge4" class="edge">
<title>0&#45;&gt;19</title>
<path fill="none" stroke="black" stroke-dasharray="5,2" d="M1156.02,-158.47C1391.55,-179.31 1669.67,-222.76 1744.88,-313 1783.15,-358.92 1773.25,-529.39 1744.88,-582 1732.61,-604.75 1715.58,-624.81 1696.15,-642.35"/>
<polygon fill="black" stroke="black" points="1693.82,-639.74 1688.59,-648.95 1698.42,-645.01 1693.82,-639.74"/>
</g>
<!-- 20 -->
<g id="node5" class="node">
<title>20</title>
<polygon fill="#f2f2f2" stroke="black" points="1792.31,-363.9 1792.31,-531.1 2169.45,-531.1 2169.45,-363.9 1792.31,-363.9"/>
<text text-anchor="middle" x="1980.88" y="-514.5" font-family="Times,serif" font-size="14.00">&lt;&lt;Library&gt;&gt;</text>
<text text-anchor="middle" x="1980.88" y="-497.7" font-family="Times,serif" font-size="14.00">UserOperationLib</text>
<text text-anchor="middle" x="1980.88" y="-480.9" font-family="Times,serif" font-size="14.00">../../../account&#45;abstraction/contracts/interfaces/UserOperation.sol</text>
<polyline fill="none" stroke="black" points="1792.31,-472.7 2169.45,-472.7 "/>
<text text-anchor="start" x="1800.31" y="-456.1" font-family="Times,serif" font-size="14.00">Internal:</text>
<text text-anchor="start" x="1800.31" y="-439.3" font-family="Times,serif" font-size="14.00"> &#160;&#160;&#160;getSender(userOp: UserOperation): address</text>
<text text-anchor="start" x="1800.31" y="-422.5" font-family="Times,serif" font-size="14.00"> &#160;&#160;&#160;gasPrice(userOp: UserOperation): uint256</text>
<text text-anchor="start" x="1800.31" y="-405.7" font-family="Times,serif" font-size="14.00"> &#160;&#160;&#160;pack(userOp: UserOperation): (ret: bytes)</text>
<text text-anchor="start" x="1800.31" y="-388.9" font-family="Times,serif" font-size="14.00"> &#160;&#160;&#160;hash(userOp: UserOperation): bytes32</text>
<text text-anchor="start" x="1800.31" y="-372.1" font-family="Times,serif" font-size="14.00"> &#160;&#160;&#160;min(a: uint256, b: uint256): uint256</text>
</g>
<!-- 0&#45;&gt;20 -->
<g id="edge2" class="edge">
<title>0&#45;&gt;20</title>
<path fill="none" stroke="black" stroke-dasharray="5,2" d="M1156.09,-167.67C1345.97,-191.26 1580.19,-234.39 1777.88,-313 1807.32,-324.71 1836.97,-341.04 1864.16,-358.27"/>
<polygon fill="black" stroke="black" points="1862.59,-361.43 1872.9,-363.9 1866.38,-355.54 1862.59,-361.43"/>
</g>
<!-- 8&#45;&gt;19 -->
<g id="edge5" class="edge">
<title>8&#45;&gt;19</title>
<path fill="none" stroke="black" stroke-dasharray="5,2" d="M481.88,-497.55C553.1,-524.94 645.16,-558.24 728.88,-582 920.68,-636.44 1144.09,-681.12 1300.89,-709.51"/>
<polygon fill="black" stroke="black" points="1300.66,-713.02 1311.12,-711.35 1301.9,-706.13 1300.66,-713.02"/>
</g>
<!-- 10&#45;&gt;19 -->
<g id="edge6" class="edge">
<title>10&#45;&gt;19</title>
<path fill="none" stroke="black" stroke-dasharray="5,2" d="M1355.68,-581.58C1364.28,-591.2 1372.94,-600.91 1381.53,-610.53"/>
<polygon fill="black" stroke="black" points="1379.13,-613.1 1388.4,-618.23 1384.36,-608.44 1379.13,-613.1"/>
</g>
<!-- 20&#45;&gt;19 -->
<g id="edge7" class="edge">
<title>20&#45;&gt;19</title>
<path fill="none" stroke="black" stroke-dasharray="5,2" d="M1857.6,-531.17C1831.46,-548.25 1803.9,-565.93 1777.88,-582 1752.08,-597.94 1724.7,-614.38 1697.58,-630.38"/>
<polygon fill="black" stroke="black" points="1695.62,-627.47 1688.78,-635.56 1699.17,-633.5 1695.62,-627.47"/>
</g>
</g>
</svg>
