<?xml version="1.0" encoding="UTF-8" standalone="no"?>
<!DOCTYPE svg PUBLIC "-//W3C//DTD SVG 1.1//EN"
 "http://www.w3.org/Graphics/SVG/1.1/DTD/svg11.dtd">
<!-- Generated by graphviz version 5.0.0 (20220707.1540)
 -->
<!-- Title: UmlClassDiagram Pages: 1 -->
<svg width="2177pt" height="1404pt"
 viewBox="0.00 0.00 2177.45 1404.20" xmlns="http://www.w3.org/2000/svg" xmlns:xlink="http://www.w3.org/1999/xlink">
<g id="graph0" class="graph" transform="scale(1 1) rotate(0) translate(4 1400.2)">
<title>UmlClassDiagram</title>
<polygon fill="white" stroke="transparent" points="-4,4 -4,-1400.2 2173.45,-1400.2 2173.45,4 -4,4"/>
<!-- 0 -->
<g id="node1" class="node">
<title>0</title>
<polygon fill="#f2f2f2" stroke="black" points="439.75,-0.5 439.75,-276.5 1156.01,-276.5 1156.01,-0.5 439.75,-0.5"/>
<text text-anchor="middle" x="797.88" y="-259.9" font-family="Times,serif" font-size="14.00">&lt;&lt;Abstract&gt;&gt;</text>
<text text-anchor="middle" x="797.88" y="-243.1" font-family="Times,serif" font-size="14.00">BaseAccount</text>
<text text-anchor="middle" x="797.88" y="-226.3" font-family="Times,serif" font-size="14.00">../../../account&#45;abstraction/contracts/core/BaseAccount.sol</text>
<polyline fill="none" stroke="black" points="439.75,-218.1 1156.01,-218.1 "/>
<text text-anchor="start" x="447.75" y="-201.5" font-family="Times,serif" font-size="14.00">Internal:</text>
<text text-anchor="start" x="447.75" y="-184.7" font-family="Times,serif" font-size="14.00"> &#160;&#160;SIG_VALIDATION_FAILED: uint256</text>
<polyline fill="none" stroke="black" points="439.75,-176.5 1156.01,-176.5 "/>
<text text-anchor="start" x="447.75" y="-159.9" font-family="Times,serif" font-size="14.00">Internal:</text>
<text text-anchor="start" x="447.75" y="-143.1" font-family="Times,serif" font-size="14.00"> &#160;&#160;&#160;&lt;&lt;abstract&gt;&gt; _validateSignature(userOp: UserOperation, userOpHash: bytes32): (validationData: uint256)</text>
<text text-anchor="start" x="447.75" y="-126.3" font-family="Times,serif" font-size="14.00"> &#160;&#160;&#160;&lt;&lt;abstract&gt;&gt; _validateAndUpdateNonce(userOp: UserOperation)</text>
<text text-anchor="start" x="447.75" y="-109.5" font-family="Times,serif" font-size="14.00"> &#160;&#160;&#160;_requireFromEntryPoint()</text>
<text text-anchor="start" x="447.75" y="-92.7" font-family="Times,serif" font-size="14.00"> &#160;&#160;&#160;_payPrefund(missingAccountFunds: uint256)</text>
<text text-anchor="start" x="447.75" y="-75.9" font-family="Times,serif" font-size="14.00">External:</text>
<text text-anchor="start" x="447.75" y="-59.1" font-family="Times,serif" font-size="14.00"> &#160;&#160;&#160;validateUserOp(userOp: UserOperation, userOpHash: bytes32, missingAccountFunds: uint256): (validationData: uint256)</text>
<text text-anchor="start" x="447.75" y="-42.3" font-family="Times,serif" font-size="14.00">Public:</text>
<text text-anchor="start" x="447.75" y="-25.5" font-family="Times,serif" font-size="14.00"> &#160;&#160;&#160;&lt;&lt;abstract&gt;&gt; nonce(): uint256</text>
<text text-anchor="start" x="447.75" y="-8.7" font-family="Times,serif" font-size="14.00"> &#160;&#160;&#160;&lt;&lt;abstract&gt;&gt; entryPoint(): IEntryPoint</text>
</g>
<!-- 8 -->
<g id="node2" class="node">
<title>8</title>
<polygon fill="#f2f2f2" stroke="black" points="0,-397.5 0,-497.5 719.76,-497.5 719.76,-397.5 0,-397.5"/>
<text text-anchor="middle" x="359.88" y="-480.9" font-family="Times,serif" font-size="14.00">&lt;&lt;Interface&gt;&gt;</text>
<text text-anchor="middle" x="359.88" y="-464.1" font-family="Times,serif" font-size="14.00">IAccount</text>
<text text-anchor="middle" x="359.88" y="-447.3" font-family="Times,serif" font-size="14.00">../../../account&#45;abstraction/contracts/interfaces/IAccount.sol</text>
<polyline fill="none" stroke="black" points="0,-439.1 719.76,-439.1 "/>
<text text-anchor="start" x="8" y="-422.5" font-family="Times,serif" font-size="14.00">External:</text>
<text text-anchor="start" x="8" y="-405.7" font-family="Times,serif" font-size="14.00"> &#160;&#160;&#160;&#160;validateUserOp(userOp: UserOperation, userOpHash: bytes32, missingAccountFunds: uint256): (validationData: uint256)</text>
</g>
<!-- 0&#45;&gt;8 -->
<g id="edge1" class="edge">
<title>0&#45;&gt;8</title>
<path fill="none" stroke="black" stroke-dasharray="5,2" d="M602.26,-276.61C550.93,-312.59 497.87,-349.78 454.53,-380.16"/>
<polygon fill="none" stroke="black" points="448.43,-371.61 429.89,-397.43 460.48,-388.81 448.43,-371.61"/>
</g>
<!-- 10 -->
<g id="node5" class="node">
<title>10</title>
<polygon fill="#f2f2f2" stroke="black" points="737.98,-313.5 737.98,-581.5 1735.78,-581.5 1735.78,-313.5 737.98,-313.5"/>
<text text-anchor="middle" x="1236.88" y="-564.9" font-family="Times,serif" font-size="14.00">&lt;&lt;Interface&gt;&gt;</text>
<text text-anchor="middle" x="1236.88" y="-548.1" font-family="Times,serif" font-size="14.00">IEntryPoint</text>
<text text-anchor="middle" x="1236.88" y="-531.3" font-family="Times,serif" font-size="14.00">../../../account&#45;abstraction/contracts/interfaces/IEntryPoint.sol</text>
<polyline fill="none" stroke="black" points="737.98,-523.1 1735.78,-523.1 "/>
<text text-anchor="start" x="745.98" y="-506.5" font-family="Times,serif" font-size="14.00">External:</text>
<text text-anchor="start" x="745.98" y="-489.7" font-family="Times,serif" font-size="14.00"> &#160;&#160;&#160;&#160;handleOps(ops: UserOperation[], beneficiary: address)</text>
<text text-anchor="start" x="745.98" y="-472.9" font-family="Times,serif" font-size="14.00"> &#160;&#160;&#160;&#160;handleAggregatedOps(opsPerAggregator: UserOpsPerAggregator[], beneficiary: address)</text>
<text text-anchor="start" x="745.98" y="-456.1" font-family="Times,serif" font-size="14.00"> &#160;&#160;&#160;&#160;getUserOpHash(userOp: UserOperation): bytes32</text>
<text text-anchor="start" x="745.98" y="-439.3" font-family="Times,serif" font-size="14.00"> &#160;&#160;&#160;&#160;simulateValidation(userOp: UserOperation)</text>
<text text-anchor="start" x="745.98" y="-422.5" font-family="Times,serif" font-size="14.00"> &#160;&#160;&#160;&#160;getSenderAddress(initCode: bytes)</text>
<text text-anchor="start" x="745.98" y="-405.7" font-family="Times,serif" font-size="14.00"> &#160;&#160;&#160;&#160;simulateHandleOp(op: UserOperation, target: address, targetCallData: bytes)</text>
<text text-anchor="start" x="745.98" y="-388.9" font-family="Times,serif" font-size="14.00">Public:</text>
<text text-anchor="start" x="745.98" y="-372.1" font-family="Times,serif" font-size="14.00"> &#160;&#160;&#160;&lt;&lt;event&gt;&gt; UserOperationEvent(userOpHash: bytes32, sender: address, paymaster: address, nonce: uint256, success: bool, actualGasCost: uint256, actualGasUsed: uint256)</text>
<text text-anchor="start" x="745.98" y="-355.3" font-family="Times,serif" font-size="14.00"> &#160;&#160;&#160;&lt;&lt;event&gt;&gt; AccountDeployed(userOpHash: bytes32, sender: address, factory: address, paymaster: address)</text>
<text text-anchor="start" x="745.98" y="-338.5" font-family="Times,serif" font-size="14.00"> &#160;&#160;&#160;&lt;&lt;event&gt;&gt; UserOperationRevertReason(userOpHash: bytes32, sender: address, nonce: uint256, revertReason: bytes)</text>
<text text-anchor="start" x="745.98" y="-321.7" font-family="Times,serif" font-size="14.00"> &#160;&#160;&#160;&lt;&lt;event&gt;&gt; SignatureAggregatorChanged(aggregator: address)</text>
</g>
<!-- 0&#45;&gt;10 -->
<g id="edge3" class="edge">
<title>0&#45;&gt;10</title>
<path fill="none" stroke="black" stroke-dasharray="5,2" d="M993.95,-276.61C1008.56,-286.83 1023.31,-297.15 1037.94,-307.38"/>
<polygon fill="black" stroke="black" points="1036.33,-310.52 1046.53,-313.39 1040.34,-304.79 1036.33,-310.52"/>
</g>
<!-- 19 -->
<g id="node8" class="node">
<title>19</title>
<polygon fill="#f2f2f2" stroke="black" points="1183.31,-1144.5 1183.31,-1395.7 1560.45,-1395.7 1560.45,-1144.5 1183.31,-1144.5"/>
<text text-anchor="middle" x="1371.88" y="-1379.1" font-family="Times,serif" font-size="14.00">&lt;&lt;Struct&gt;&gt;</text>
<text text-anchor="middle" x="1371.88" y="-1362.3" font-family="Times,serif" font-size="14.00">UserOperation</text>
<text text-anchor="middle" x="1371.88" y="-1345.5" font-family="Times,serif" font-size="14.00">../../../account&#45;abstraction/contracts/interfaces/UserOperation.sol</text>
<polyline fill="none" stroke="black" points="1183.31,-1337.3 1560.45,-1337.3 "/>
<text text-anchor="start" x="1191.31" y="-1320.7" font-family="Times,serif" font-size="14.00">sender: address</text>
<text text-anchor="start" x="1191.31" y="-1303.9" font-family="Times,serif" font-size="14.00">nonce: uint256</text>
<text text-anchor="start" x="1191.31" y="-1287.1" font-family="Times,serif" font-size="14.00">initCode: bytes</text>
<text text-anchor="start" x="1191.31" y="-1270.3" font-family="Times,serif" font-size="14.00">callData: bytes</text>
<text text-anchor="start" x="1191.31" y="-1253.5" font-family="Times,serif" font-size="14.00">callGasLimit: uint256</text>
<text text-anchor="start" x="1191.31" y="-1236.7" font-family="Times,serif" font-size="14.00">verificationGasLimit: uint256</text>
<text text-anchor="start" x="1191.31" y="-1219.9" font-family="Times,serif" font-size="14.00">preVerificationGas: uint256</text>
<text text-anchor="start" x="1191.31" y="-1203.1" font-family="Times,serif" font-size="14.00">maxFeePerGas: uint256</text>
<text text-anchor="start" x="1191.31" y="-1186.3" font-family="Times,serif" font-size="14.00">maxPriorityFeePerGas: uint256</text>
<text text-anchor="start" x="1191.31" y="-1169.5" font-family="Times,serif" font-size="14.00">paymasterAndData: bytes</text>
<text text-anchor="start" x="1191.31" y="-1152.7" font-family="Times,serif" font-size="14.00">signature: bytes</text>
</g>
<!-- 0&#45;&gt;19 -->
<g id="edge4" class="edge">
<title>0&#45;&gt;19</title>
<path fill="none" stroke="black" stroke-dasharray="5,2" d="M1156.02,-158.47C1391.55,-179.31 1669.67,-222.76 1744.88,-313 1783.15,-358.92 1752.46,-522.7 1744.88,-582 1714.01,-823.5 1736.55,-912.18 1591.88,-1108 1584.44,-1118.06 1576.2,-1127.77 1567.39,-1137.08"/>
<polygon fill="black" stroke="black" points="1564.67,-1134.85 1560.21,-1144.46 1569.69,-1139.73 1564.67,-1134.85"/>
</g>
<!-- 20 -->
<g id="node9" class="node">
<title>20</title>
<polygon fill="#f2f2f2" stroke="black" points="1792.31,-685.7 1792.31,-852.9 2169.45,-852.9 2169.45,-685.7 1792.31,-685.7"/>
<text text-anchor="middle" x="1980.88" y="-836.3" font-family="Times,serif" font-size="14.00">&lt;&lt;Library&gt;&gt;</text>
<text text-anchor="middle" x="1980.88" y="-819.5" font-family="Times,serif" font-size="14.00">UserOperationLib</text>
<text text-anchor="middle" x="1980.88" y="-802.7" font-family="Times,serif" font-size="14.00">../../../account&#45;abstraction/contracts/interfaces/UserOperation.sol</text>
<polyline fill="none" stroke="black" points="1792.31,-794.5 2169.45,-794.5 "/>
<text text-anchor="start" x="1800.31" y="-777.9" font-family="Times,serif" font-size="14.00">Internal:</text>
<text text-anchor="start" x="1800.31" y="-761.1" font-family="Times,serif" font-size="14.00"> &#160;&#160;&#160;getSender(userOp: UserOperation): address</text>
<text text-anchor="start" x="1800.31" y="-744.3" font-family="Times,serif" font-size="14.00"> &#160;&#160;&#160;gasPrice(userOp: UserOperation): uint256</text>
<text text-anchor="start" x="1800.31" y="-727.5" font-family="Times,serif" font-size="14.00"> &#160;&#160;&#160;pack(userOp: UserOperation): (ret: bytes)</text>
<text text-anchor="start" x="1800.31" y="-710.7" font-family="Times,serif" font-size="14.00"> &#160;&#160;&#160;hash(userOp: UserOperation): bytes32</text>
<text text-anchor="start" x="1800.31" y="-693.9" font-family="Times,serif" font-size="14.00"> &#160;&#160;&#160;min(a: uint256, b: uint256): uint256</text>
</g>
<!-- 0&#45;&gt;20 -->
<g id="edge2" class="edge">
<title>0&#45;&gt;20</title>
<path fill="none" stroke="black" stroke-dasharray="5,2" d="M1156.02,-167.74C1394.86,-193.06 1681.98,-238.06 1777.88,-313 1892.34,-402.44 1943.97,-570.3 1965.96,-675.32"/>
<polygon fill="black" stroke="black" points="1962.56,-676.18 1967.99,-685.28 1969.42,-674.78 1962.56,-676.18"/>
</g>
<!-- 8&#45;&gt;19 -->
<g id="edge5" class="edge">
<title>8&#45;&gt;19</title>
<path fill="none" stroke="black" stroke-dasharray="5,2" d="M362.71,-497.59C372.58,-620.78 416.22,-944.8 605.88,-1108 689.52,-1179.97 975.25,-1225.45 1173.05,-1249.1"/>
<polygon fill="black" stroke="black" points="1172.64,-1252.57 1182.99,-1250.28 1173.47,-1245.62 1172.64,-1252.57"/>
</g>
<!-- 9 -->
<g id="node3" class="node">
<title>9</title>
<polygon fill="#f2f2f2" stroke="black" points="614.85,-965.5 614.85,-1099.1 1084.91,-1099.1 1084.91,-965.5 614.85,-965.5"/>
<text text-anchor="middle" x="849.88" y="-1082.5" font-family="Times,serif" font-size="14.00">&lt;&lt;Interface&gt;&gt;</text>
<text text-anchor="middle" x="849.88" y="-1065.7" font-family="Times,serif" font-size="14.00">IAggregator</text>
<text text-anchor="middle" x="849.88" y="-1048.9" font-family="Times,serif" font-size="14.00">../../../account&#45;abstraction/contracts/interfaces/IAggregator.sol</text>
<polyline fill="none" stroke="black" points="614.85,-1040.7 1084.91,-1040.7 "/>
<text text-anchor="start" x="622.85" y="-1024.1" font-family="Times,serif" font-size="14.00">External:</text>
<text text-anchor="start" x="622.85" y="-1007.3" font-family="Times,serif" font-size="14.00"> &#160;&#160;&#160;&#160;validateSignatures(userOps: UserOperation[], signature: bytes)</text>
<text text-anchor="start" x="622.85" y="-990.5" font-family="Times,serif" font-size="14.00"> &#160;&#160;&#160;&#160;validateUserOpSignature(userOp: UserOperation): (sigForUserOp: bytes)</text>
<text text-anchor="start" x="622.85" y="-973.7" font-family="Times,serif" font-size="14.00"> &#160;&#160;&#160;&#160;aggregateSignatures(userOps: UserOperation[]): (aggregatedSignature: bytes)</text>
</g>
<!-- 9&#45;&gt;19 -->
<g id="edge6" class="edge">
<title>9&#45;&gt;19</title>
<path fill="none" stroke="black" stroke-dasharray="5,2" d="M995.63,-1099.14C1050.75,-1124.04 1114.45,-1152.81 1173.58,-1179.52"/>
<polygon fill="black" stroke="black" points="1172.48,-1182.87 1183.03,-1183.79 1175.36,-1176.49 1172.48,-1182.87"/>
</g>
<!-- 11 -->
<g id="node4" class="node">
<title>11</title>
<polygon fill="#f2f2f2" stroke="black" points="679.85,-710.9 679.85,-827.7 1039.91,-827.7 1039.91,-710.9 679.85,-710.9"/>
<text text-anchor="middle" x="859.88" y="-811.1" font-family="Times,serif" font-size="14.00">&lt;&lt;Struct&gt;&gt;</text>
<text text-anchor="middle" x="859.88" y="-794.3" font-family="Times,serif" font-size="14.00">UserOpsPerAggregator</text>
<text text-anchor="middle" x="859.88" y="-777.5" font-family="Times,serif" font-size="14.00">../../../account&#45;abstraction/contracts/interfaces/IEntryPoint.sol</text>
<polyline fill="none" stroke="black" points="679.85,-769.3 1039.91,-769.3 "/>
<text text-anchor="start" x="687.85" y="-752.7" font-family="Times,serif" font-size="14.00">userOps: UserOperation[]</text>
<text text-anchor="start" x="687.85" y="-735.9" font-family="Times,serif" font-size="14.00">aggregator: IAggregator</text>
<text text-anchor="start" x="687.85" y="-719.1" font-family="Times,serif" font-size="14.00">signature: bytes</text>
</g>
<!-- 11&#45;&gt;9 -->
<g id="edge8" class="edge">
<title>11&#45;&gt;9</title>
<path fill="none" stroke="black" stroke-dasharray="5,2" d="M857.67,-827.9C856.24,-865.27 854.36,-914.37 852.8,-954.97"/>
<polygon fill="black" stroke="black" points="849.3,-954.97 852.42,-965.1 856.3,-955.24 849.3,-954.97"/>
</g>
<!-- 11&#45;&gt;10 -->
<g id="edge9" class="edge">
<title>11&#45;&gt;10</title>
<path fill="none" stroke="black" d="M933.03,-710.77C974.15,-676.83 1027.14,-632.27 1077.33,-589.53"/>
<polygon fill="black" stroke="black" points="1077.53,-589.36 1079.5,-582.42 1086.67,-581.58 1084.69,-588.51 1077.53,-589.36"/>
</g>
<!-- 11&#45;&gt;19 -->
<g id="edge7" class="edge">
<title>11&#45;&gt;19</title>
<path fill="none" stroke="black" stroke-dasharray="5,2" d="M932.17,-827.74C1000.78,-882.28 1093.53,-956.05 1093.88,-956.6 1131.44,-1014.93 1091.98,-1051.25 1131.88,-1108 1144.27,-1125.62 1159.25,-1141.86 1175.61,-1156.69"/>
<polygon fill="black" stroke="black" points="1173.4,-1159.41 1183.22,-1163.41 1178.03,-1154.17 1173.4,-1159.41"/>
</g>
<!-- 10&#45;&gt;11 -->
<g id="edge12" class="edge">
<title>10&#45;&gt;11</title>
<path fill="none" stroke="black" stroke-dasharray="5,2" d="M1073.34,-581.58C1023.11,-623.95 970.49,-668.91 930.04,-704.09"/>
<polygon fill="black" stroke="black" points="927.61,-701.56 922.37,-710.77 932.21,-706.84 927.61,-701.56"/>
</g>
<!-- 16 -->
<g id="node7" class="node">
<title>16</title>
<polygon fill="#f2f2f2" stroke="black" points="1057.87,-618.5 1057.87,-920.1 1603.89,-920.1 1603.89,-618.5 1057.87,-618.5"/>
<text text-anchor="middle" x="1330.88" y="-903.5" font-family="Times,serif" font-size="14.00">&lt;&lt;Interface&gt;&gt;</text>
<text text-anchor="middle" x="1330.88" y="-886.7" font-family="Times,serif" font-size="14.00">IStakeManager</text>
<text text-anchor="middle" x="1330.88" y="-869.9" font-family="Times,serif" font-size="14.00">../../../account&#45;abstraction/contracts/interfaces/IStakeManager.sol</text>
<polyline fill="none" stroke="black" points="1057.87,-861.7 1603.89,-861.7 "/>
<text text-anchor="start" x="1065.87" y="-845.1" font-family="Times,serif" font-size="14.00">External:</text>
<text text-anchor="start" x="1065.87" y="-828.3" font-family="Times,serif" font-size="14.00"> &#160;&#160;&#160;&#160;getDepositInfo(account: address): (info: DepositInfo)</text>
<text text-anchor="start" x="1065.87" y="-811.5" font-family="Times,serif" font-size="14.00"> &#160;&#160;&#160;&#160;balanceOf(account: address): uint256</text>
<text text-anchor="start" x="1065.87" y="-794.7" font-family="Times,serif" font-size="14.00"> &#160;&#160;&#160;&#160;depositTo(account: address)</text>
<text text-anchor="start" x="1065.87" y="-777.9" font-family="Times,serif" font-size="14.00"> &#160;&#160;&#160;&#160;addStake(_unstakeDelaySec: uint32)</text>
<text text-anchor="start" x="1065.87" y="-761.1" font-family="Times,serif" font-size="14.00"> &#160;&#160;&#160;&#160;unlockStake()</text>
<text text-anchor="start" x="1065.87" y="-744.3" font-family="Times,serif" font-size="14.00"> &#160;&#160;&#160;&#160;withdrawStake(withdrawAddress: address)</text>
<text text-anchor="start" x="1065.87" y="-727.5" font-family="Times,serif" font-size="14.00"> &#160;&#160;&#160;&#160;withdrawTo(withdrawAddress: address, withdrawAmount: uint256)</text>
<text text-anchor="start" x="1065.87" y="-710.7" font-family="Times,serif" font-size="14.00">Public:</text>
<text text-anchor="start" x="1065.87" y="-693.9" font-family="Times,serif" font-size="14.00"> &#160;&#160;&#160;&lt;&lt;event&gt;&gt; Deposited(account: address, totalDeposit: uint256)</text>
<text text-anchor="start" x="1065.87" y="-677.1" font-family="Times,serif" font-size="14.00"> &#160;&#160;&#160;&lt;&lt;event&gt;&gt; Withdrawn(account: address, withdrawAddress: address, amount: uint256)</text>
<text text-anchor="start" x="1065.87" y="-660.3" font-family="Times,serif" font-size="14.00"> &#160;&#160;&#160;&lt;&lt;event&gt;&gt; StakeLocked(account: address, totalStaked: uint256, unstakeDelaySec: uint256)</text>
<text text-anchor="start" x="1065.87" y="-643.5" font-family="Times,serif" font-size="14.00"> &#160;&#160;&#160;&lt;&lt;event&gt;&gt; StakeUnlocked(account: address, withdrawTime: uint256)</text>
<text text-anchor="start" x="1065.87" y="-626.7" font-family="Times,serif" font-size="14.00"> &#160;&#160;&#160;&lt;&lt;event&gt;&gt; StakeWithdrawn(account: address, withdrawAddress: address, amount: uint256)</text>
</g>
<!-- 10&#45;&gt;16 -->
<g id="edge10" class="edge">
<title>10&#45;&gt;16</title>
<path fill="none" stroke="black" stroke-dasharray="5,2" d="M1276.06,-581.81C1276.81,-584.36 1277.56,-586.91 1278.32,-589.48"/>
<polygon fill="none" stroke="black" points="1268.28,-592.57 1286.82,-618.4 1288.43,-586.65 1268.28,-592.57"/>
</g>
<!-- 10&#45;&gt;19 -->
<g id="edge11" class="edge">
<title>10&#45;&gt;19</title>
<path fill="none" stroke="black" stroke-dasharray="5,2" d="M1583.97,-581.68C1594.7,-592.84 1604.43,-604.92 1612.88,-618 1732.75,-803.52 1653.92,-925.24 1529.88,-1108 1523.35,-1117.62 1516.21,-1127.18 1508.69,-1136.56"/>
<polygon fill="black" stroke="black" points="1505.9,-1134.43 1502.28,-1144.39 1511.32,-1138.86 1505.9,-1134.43"/>
</g>
<!-- 17 -->
<g id="node6" class="node">
<title>17</title>
<polygon fill="#f2f2f2" stroke="black" points="1140.76,-957.1 1140.76,-1107.5 1521,-1107.5 1521,-957.1 1140.76,-957.1"/>
<text text-anchor="middle" x="1330.88" y="-1090.9" font-family="Times,serif" font-size="14.00">&lt;&lt;Struct&gt;&gt;</text>
<text text-anchor="middle" x="1330.88" y="-1074.1" font-family="Times,serif" font-size="14.00">DepositInfo</text>
<text text-anchor="middle" x="1330.88" y="-1057.3" font-family="Times,serif" font-size="14.00">../../../account&#45;abstraction/contracts/interfaces/IStakeManager.sol</text>
<polyline fill="none" stroke="black" points="1140.76,-1049.1 1521,-1049.1 "/>
<text text-anchor="start" x="1148.76" y="-1032.5" font-family="Times,serif" font-size="14.00">deposit: uint112</text>
<text text-anchor="start" x="1148.76" y="-1015.7" font-family="Times,serif" font-size="14.00">staked: bool</text>
<text text-anchor="start" x="1148.76" y="-998.9" font-family="Times,serif" font-size="14.00">stake: uint112</text>
<text text-anchor="start" x="1148.76" y="-982.1" font-family="Times,serif" font-size="14.00">unstakeDelaySec: uint32</text>
<text text-anchor="start" x="1148.76" y="-965.3" font-family="Times,serif" font-size="14.00">withdrawTime: uint48</text>
</g>
<!-- 17&#45;&gt;16 -->
<g id="edge13" class="edge">
<title>17&#45;&gt;16</title>
<path fill="none" stroke="black" d="M1337.04,-956.84C1337.22,-948.93 1337.36,-940.69 1337.45,-932.26"/>
<polygon fill="black" stroke="black" points="1337.45,-932.23 1333.51,-926.2 1337.56,-920.23 1341.51,-926.27 1337.45,-932.23"/>
</g>
<!-- 16&#45;&gt;17 -->
<g id="edge14" class="edge">
<title>16&#45;&gt;17</title>
<path fill="none" stroke="black" stroke-dasharray="5,2" d="M1324.2,-920.23C1324.26,-929.2 1324.36,-938.04 1324.51,-946.58"/>
<polygon fill="black" stroke="black" points="1321.02,-946.91 1324.72,-956.84 1328.02,-946.77 1321.02,-946.91"/>
</g>
<!-- 20&#45;&gt;19 -->
<g id="edge15" class="edge">
<title>20&#45;&gt;19</title>
<path fill="none" stroke="black" stroke-dasharray="5,2" d="M1949.4,-853.02C1916.83,-928.66 1859.25,-1038.96 1777.88,-1108 1718.39,-1158.48 1641.15,-1194.4 1570.02,-1219.32"/>
<polygon fill="black" stroke="black" points="1568.8,-1216.04 1560.48,-1222.61 1571.08,-1222.66 1568.8,-1216.04"/>
</g>
</g>
</svg>
